League Gothic Italic.ufo
<glyph name="exclam" format="1">
  <advance width="189"/>
  <unicode hex="0021"/>
  <outline>
    <contour>
      <point x="192" y="735" type="line"/>
      <point x="309" y="735" type="line"/>
      <point x="168" y="198" type="line"/>
      <point x="105" y="198" type="line"/>
    </contour>
    <contour>
      <point x="65" y="111" type="line"/>
      <point x="170" y="111" type="line"/>
      <point x="147" y="0" type="line"/>
      <point x="42" y="0" type="line"/>
    </contour>
  </outline>
</glyph>
<glyph name="numbersign" format="1">
  <advance width="602"/>
  <unicode hex="0023"/>
  <outline>
    <contour>
      <point x="102" y="309" type="line"/>
      <point x="199" y="309" type="line"/>
      <point x="244" y="435" type="line"/>
      <point x="148" y="435" type="line"/>
      <point x="181" y="530" type="line"/>
      <point x="277" y="530" type="line"/>
      <point x="349" y="735" type="line"/>
      <point x="445" y="735" type="line"/>
      <point x="373" y="530" type="line"/>
      <point x="500" y="530" type="line"/>
      <point x="572" y="735" type="line"/>
      <point x="668" y="735" type="line"/>
      <point x="596" y="530" type="line"/>
      <point x="690" y="530" type="line"/>
      <point x="657" y="435" type="line"/>
      <point x="563" y="435" type="line"/>
      <point x="518" y="309" type="line"/>
      <point x="611" y="309" type="line"/>
      <point x="578" y="214" type="line"/>
      <point x="485" y="214" type="line"/>
      <point x="411" y="0" type="line"/>
      <point x="315" y="0" type="line"/>
      <point x="389" y="214" type="line"/>
      <point x="262" y="214" type="line"/>
      <point x="188" y="0" type="line"/>
      <point x="92" y="0" type="line"/>
      <point x="166" y="214" type="line"/>
      <point x="69" y="214" type="line"/>
    </contour>
    <contour>
      <point x="295" y="309" type="line"/>
      <point x="422" y="309" type="line"/>
      <point x="467" y="435" type="line"/>
      <point x="340" y="435" type="line"/>
    </contour>
  </outline>
</glyph>
<glyph name="dollar" format="1">
  <advance width="338"/>
  <unicode hex="0024"/>
  <outline>
    <contour>
      <point x="368" y="795" type="line"/>
      <point x="356" y="734" type="line"/>
      <point x="395" y="730"/>
      <point x="417" y="712"/>
      <point x="430" y="687" type="curve" smooth="yes"/>
      <point x="442" y="662"/>
      <point x="444" y="629"/>
      <point x="441" y="596" type="curve"/>
      <point x="345" y="584" type="line"/>
      <point x="348" y="617"/>
      <point x="344" y="646"/>
      <point x="313" y="645" type="curve" smooth="yes"/>
      <point x="297" y="645"/>
      <point x="285" y="635"/>
      <point x="276" y="620" type="curve" smooth="yes"/>
      <point x="267" y="605"/>
      <point x="259" y="586"/>
      <point x="255" y="566" type="curve" smooth="yes"/>
      <point x="248" y="538"/>
      <point x="254" y="509"/>
      <point x="265" y="482" type="curve" smooth="yes"/>
      <point x="276" y="454"/>
      <point x="289" y="426"/>
      <point x="304" y="401" type="curve" smooth="yes"/>
      <point x="308" y="394"/>
      <point x="312" y="386"/>
      <point x="316" y="378" type="curve"/>
      <point x="319" y="370"/>
      <point x="323" y="362"/>
      <point x="328" y="353" type="curve"/>
      <point x="344" y="318"/>
      <point x="357" y="282"/>
      <point x="362" y="243" type="curve" smooth="yes"/>
      <point x="365" y="223"/>
      <point x="362" y="202"/>
      <point x="358" y="181" type="curve" smooth="yes"/>
      <point x="349" y="137"/>
      <point x="334" y="95"/>
      <point x="307" y="63" type="curve" smooth="yes"/>
      <point x="280" y="30"/>
      <point x="247" y="6"/>
      <point x="200" y="1" type="curve"/>
      <point x="177" y="-105" type="line"/>
      <point x="117" y="-105" type="line"/>
      <point x="140" y="3" type="line"/>
      <point x="97" y="11"/>
      <point x="74" y="33"/>
      <point x="61" y="64" type="curve" smooth="yes"/>
      <point x="49" y="96"/>
      <point x="47" y="133"/>
      <point x="55" y="175" type="curve"/>
      <point x="150" y="181" type="line"/>
      <point x="146" y="157"/>
      <point x="146" y="134"/>
      <point x="153" y="118" type="curve" smooth="yes"/>
      <point x="160" y="101"/>
      <point x="171" y="90"/>
      <point x="194" y="90" type="curve" smooth="yes"/>
      <point x="211" y="90"/>
      <point x="224" y="101"/>
      <point x="235" y="118" type="curve" smooth="yes"/>
      <point x="255" y="150"/>
      <point x="264" y="194"/>
      <point x="260" y="223" type="curve"/>
      <point x="257" y="237"/>
      <point x="253" y="251"/>
      <point x="248" y="265" type="curve"/>
      <point x="245" y="272"/>
      <point x="242" y="279"/>
      <point x="239" y="286" type="curve" smooth="yes"/>
      <point x="236" y="293"/>
      <point x="233" y="299"/>
      <point x="230" y="306" type="curve"/>
      <point x="215" y="333"/>
      <point x="201" y="357"/>
      <point x="185" y="392" type="curve" smooth="yes"/>
      <point x="168" y="427"/>
      <point x="155" y="463"/>
      <point x="151" y="503" type="curve" smooth="yes"/>
      <point x="147" y="543"/>
      <point x="157" y="582"/>
      <point x="171" y="618" type="curve" smooth="yes"/>
      <point x="185" y="653"/>
      <point x="207" y="684"/>
      <point x="239" y="707" type="curve" smooth="yes"/>
      <point x="255" y="718"/>
      <point x="274" y="726"/>
      <point x="295" y="731" type="curve"/>
      <point x="308" y="795" type="line"/>
    </contour>
  </outline>
</glyph>
<glyph name="percent" format="1">
  <advance width="489"/>
  <unicode hex="0025"/>
  <outline>
    <contour>
      <point x="276" y="445" type="line" smooth="yes"/>
      <point x="268" y="412"/>
      <point x="251" y="389"/>
      <point x="228" y="372" type="curve" smooth="yes"/>
      <point x="217" y="363"/>
      <point x="201" y="359"/>
      <point x="181" y="359" type="curve" smooth="yes"/>
      <point x="141" y="359"/>
      <point x="128" y="379"/>
      <point x="121" y="402" type="curve" smooth="yes"/>
      <point x="117" y="414"/>
      <point x="117" y="428"/>
      <point x="121" y="445" type="curve" smooth="yes"/>
      <point x="166" y="658" type="line" smooth="yes"/>
      <point x="173" y="690"/>
      <point x="190" y="711"/>
      <point x="215" y="730" type="curve" smooth="yes"/>
      <point x="226" y="739"/>
      <point x="242" y="743"/>
      <point x="262" y="743" type="curve" smooth="yes"/>
      <point x="301" y="743"/>
      <point x="313" y="721"/>
      <point x="320" y="700" type="curve" smooth="yes"/>
      <point x="324" y="689"/>
      <point x="324" y="675"/>
      <point x="321" y="658" type="curve" smooth="yes"/>
    </contour>
    <contour>
      <point x="77" y="0" type="line"/>
      <point x="503" y="735" type="line"/>
      <point x="567" y="735" type="line"/>
      <point x="144" y="0" type="line"/>
    </contour>
    <contour>
      <point x="261" y="658" type="line" smooth="yes"/>
      <point x="263" y="667"/>
      <point x="262" y="674"/>
      <point x="259" y="681" type="curve"/>
      <point x="258" y="684"/>
      <point x="255" y="685"/>
      <point x="250" y="685" type="curve" smooth="yes"/>
      <point x="239" y="685"/>
      <point x="235" y="678"/>
      <point x="230" y="671" type="curve"/>
      <point x="227" y="666"/>
      <point x="226" y="661"/>
      <point x="226" y="658" type="curve"/>
      <point x="181" y="445" type="line"/>
      <point x="178" y="434"/>
      <point x="176" y="418"/>
      <point x="193" y="418" type="curve" smooth="yes"/>
      <point x="208" y="418"/>
      <point x="213" y="434"/>
      <point x="216" y="445" type="curve"/>
    </contour>
    <contour>
      <point x="479" y="77" type="line" smooth="yes"/>
      <point x="471" y="44"/>
      <point x="454" y="22"/>
      <point x="431" y="5" type="curve" smooth="yes"/>
      <point x="420" y="-4"/>
      <point x="404" y="-8"/>
      <point x="384" y="-8" type="curve" smooth="yes"/>
      <point x="344" y="-8"/>
      <point x="331" y="13"/>
      <point x="324" y="34" type="curve" smooth="yes"/>
      <point x="320" y="46"/>
      <point x="320" y="60"/>
      <point x="324" y="77" type="curve" smooth="yes"/>
      <point x="369" y="290" type="line" smooth="yes"/>
      <point x="376" y="322"/>
      <point x="393" y="344"/>
      <point x="418" y="363" type="curve" smooth="yes"/>
      <point x="429" y="372"/>
      <point x="445" y="376"/>
      <point x="465" y="376" type="curve" smooth="yes"/>
      <point x="504" y="376"/>
      <point x="516" y="354"/>
      <point x="523" y="333" type="curve" smooth="yes"/>
      <point x="527" y="321"/>
      <point x="527" y="307"/>
      <point x="524" y="290" type="curve" smooth="yes"/>
    </contour>
    <contour>
      <point x="464" y="290" type="line" smooth="yes"/>
      <point x="466" y="299"/>
      <point x="465" y="306"/>
      <point x="462" y="313" type="curve"/>
      <point x="461" y="316"/>
      <point x="458" y="317"/>
      <point x="453" y="317" type="curve" smooth="yes"/>
      <point x="442" y="317"/>
      <point x="437" y="310"/>
      <point x="433" y="303" type="curve" smooth="yes"/>
      <point x="430" y="298"/>
      <point x="429" y="293"/>
      <point x="429" y="290" type="curve"/>
      <point x="384" y="77" type="line"/>
      <point x="381" y="68"/>
      <point x="382" y="60"/>
      <point x="386" y="54" type="curve"/>
      <point x="387" y="51"/>
      <point x="391" y="49"/>
      <point x="396" y="49" type="curve" smooth="yes"/>
      <point x="401" y="49"/>
      <point x="404" y="51"/>
      <point x="407" y="54" type="curve"/>
      <point x="411" y="60"/>
      <point x="418" y="68"/>
      <point x="419" y="77" type="curve"/>
    </contour>
  </outline>
</glyph>
<glyph name="parenright" format="1">
  <advance width="274"/>
  <unicode hex="0029"/>
  <outline>
    <contour>
      <point x="263" y="776" type="line"/>
      <point x="298" y="692"/>
      <point x="317" y="605"/>
      <point x="324" y="493" type="curve" smooth="yes"/>
      <point x="327" y="436"/>
      <point x="322" y="377"/>
      <point x="308" y="315" type="curve" smooth="yes"/>
      <point x="295" y="252"/>
      <point x="273" y="193"/>
      <point x="248" y="138" type="curve" smooth="yes"/>
      <point x="223" y="82"/>
      <point x="195" y="32"/>
      <point x="168" y="-9" type="curve" smooth="yes"/>
      <point x="137" y="-58"/>
      <point x="103" y="-103"/>
      <point x="68" y="-145" type="curve"/>
      <point x="-2" y="-104" type="line"/>
      <point x="59" y="-36"/>
      <point x="108" y="42"/>
      <point x="156" y="145" type="curve" smooth="yes"/>
      <point x="180" y="196"/>
      <point x="199" y="251"/>
      <point x="212" y="315" type="curve" smooth="yes"/>
      <point x="239" y="440"/>
      <point x="229" y="542"/>
      <point x="214" y="618" type="curve"/>
      <point x="203" y="661"/>
      <point x="191" y="700"/>
      <point x="176" y="735" type="curve"/>
    </contour>
  </outline>
</glyph>
<glyph name="asterisk" format="1">
  <advance width="331"/>
  <unicode hex="002A"/>
  <outline>
    <contour>
      <point x="284" y="735" type="line"/>
      <point x="359" y="735" type="line"/>
      <point x="331" y="649" type="line"/>
      <point x="419" y="683" type="line"/>
      <point x="424" y="611" type="line"/>
      <point x="337" y="594" type="line"/>
      <point x="379" y="527" type="line"/>
      <point x="306" y="488" type="line"/>
      <point x="284" y="562" type="line"/>
      <point x="231" y="488" type="line"/>
      <point x="176" y="527" type="line"/>
      <point x="246" y="594" type="line"/>
      <point x="165" y="611" type="line"/>
      <point x="202" y="683" type="line"/>
      <point x="274" y="649" type="line"/>
    </contour>
  </outline>
</glyph>
<glyph name="plus" format="1">
  <advance width="518"/>
  <unicode hex="002B"/>
  <outline>
    <contour>
      <point x="121" y="401" type="line"/>
      <point x="302" y="401" type="line"/>
      <point x="338" y="570" type="line"/>
      <point x="422" y="570" type="line"/>
      <point x="386" y="401" type="line"/>
      <point x="567" y="401" type="line"/>
      <point x="549" y="317" type="line"/>
      <point x="368" y="317" type="line"/>
      <point x="332" y="148" type="line"/>
      <point x="248" y="148" type="line"/>
      <point x="284" y="317" type="line"/>
      <point x="103" y="317" type="line"/>
    </contour>
  </outline>
</glyph>
<glyph name="comma" format="1">
  <advance width="151"/>
  <unicode hex="002C"/>
  <outline>
    <contour>
      <point x="127" y="0" type="line"/>
      <point x="44" y="-130" type="line"/>
      <point x="-5" y="-130" type="line"/>
      <point x="57" y="0" type="line"/>
      <point x="22" y="0" type="line"/>
      <point x="45" y="111" type="line"/>
      <point x="150" y="111" type="line"/>
    </contour>
  </outline>
</glyph>
<glyph name="hyphen" format="1">
  <advance width="217"/>
  <unicode hex="002D"/>
  <outline>
    <contour>
      <point x="103" y="317" type="line"/>
      <point x="248" y="317" type="line"/>
      <point x="228" y="222" type="line"/>
      <point x="83" y="222" type="line"/>
    </contour>
  </outline>
</glyph>
<glyph name="period" format="1">
  <advance width="157"/>
  <unicode hex="002E"/>
  <outline>
    <contour>
      <point x="49" y="111" type="line"/>
      <point x="154" y="111" type="line"/>
      <point x="131" y="0" type="line"/>
      <point x="26" y="0" type="line"/>
    </contour>
  </outline>
</glyph>
<glyph name="one" format="1">
  <advance width="232"/>
  <unicode hex="0031"/>
  <outline>
    <contour>
      <point x="134" y="576" type="line"/>
      <point x="149" y="645" type="line"/>
      <point x="196" y="654"/>
      <point x="227" y="677"/>
      <point x="251" y="697" type="curve"/>
      <point x="263" y="709"/>
      <point x="274" y="722"/>
      <point x="283" y="735" type="curve"/>
      <point x="348" y="735" type="line"/>
      <point x="192" y="0" type="line"/>
      <point x="84" y="0" type="line"/>
      <point x="206" y="576" type="line"/>
    </contour>
  </outline>
</glyph>
<glyph name="five" format="1">
  <advance width="344"/>
  <unicode hex="0035"/>
  <outline>
    <contour>
      <point x="283" y="348" type="line" smooth="yes"/>
      <point x="290" y="379"/>
      <point x="284" y="402"/>
      <point x="261" y="402" type="curve" smooth="yes"/>
      <point x="249" y="402"/>
      <point x="238" y="393"/>
      <point x="227" y="382" type="curve" smooth="yes"/>
      <point x="216" y="370"/>
      <point x="210" y="356"/>
      <point x="207" y="348" type="curve"/>
      <point x="116" y="348" type="line"/>
      <point x="199" y="735" type="line"/>
      <point x="460" y="735" type="line"/>
      <point x="437" y="628" type="line"/>
      <point x="269" y="628" type="line"/>
      <point x="236" y="475" type="line"/>
      <point x="251" y="484"/>
      <point x="265" y="492"/>
      <point x="281" y="497" type="curve"/>
      <point x="289" y="500"/>
      <point x="297" y="501"/>
      <point x="304" y="500" type="curve"/>
      <point x="360" y="500"/>
      <point x="383" y="468"/>
      <point x="392" y="433" type="curve" smooth="yes"/>
      <point x="400" y="398"/>
      <point x="394" y="360"/>
      <point x="391" y="348" type="curve" smooth="yes"/>
      <point x="357" y="184" type="line" smooth="yes"/>
      <point x="349" y="149"/>
      <point x="337" y="102"/>
      <point x="310" y="63" type="curve" smooth="yes"/>
      <point x="282" y="23"/>
      <point x="240" y="-8"/>
      <point x="175" y="-8" type="curve" smooth="yes"/>
      <point x="107" y="-8"/>
      <point x="80" y="23"/>
      <point x="71" y="67" type="curve" smooth="yes"/>
      <point x="60" y="110"/>
      <point x="70" y="165"/>
      <point x="81" y="214" type="curve"/>
      <point x="189" y="214" type="line"/>
      <point x="183" y="185" type="line" smooth="yes"/>
      <point x="174" y="146"/>
      <point x="171" y="121"/>
      <point x="173" y="108" type="curve" smooth="yes"/>
      <point x="175" y="93"/>
      <point x="182" y="86"/>
      <point x="195" y="86" type="curve" smooth="yes"/>
      <point x="218" y="86"/>
      <point x="228" y="112"/>
      <point x="237" y="137" type="curve" smooth="yes"/>
      <point x="241" y="150"/>
      <point x="245" y="165"/>
      <point x="249" y="184" type="curve" smooth="yes"/>
    </contour>
  </outline>
</glyph>
<glyph name="six" format="1">
  <advance width="342"/>
  <unicode hex="0036"/>
  <outline>
    <contour>
      <point x="346" y="151" type="line" smooth="yes"/>
      <point x="342" y="134"/>
      <point x="332" y="94"/>
      <point x="305" y="59" type="curve" smooth="yes"/>
      <point x="278" y="23"/>
      <point x="236" y="-8"/>
      <point x="171" y="-8" type="curve" smooth="yes"/>
      <point x="104" y="-8"/>
      <point x="76" y="23"/>
      <point x="65" y="59" type="curve" smooth="yes"/>
      <point x="53" y="94"/>
      <point x="60" y="134"/>
      <point x="64" y="151" type="curve" smooth="yes"/>
      <point x="152" y="569" type="line"/>
      <point x="159" y="594"/>
      <point x="168" y="639"/>
      <point x="195" y="676" type="curve" smooth="yes"/>
      <point x="222" y="712"/>
      <point x="262" y="743"/>
      <point x="330" y="743" type="curve" smooth="yes"/>
      <point x="398" y="743"/>
      <point x="426" y="712"/>
      <point x="437" y="676" type="curve" smooth="yes"/>
      <point x="448" y="639"/>
      <point x="441" y="594"/>
      <point x="434" y="569" type="curve"/>
      <point x="425" y="523" type="line"/>
      <point x="317" y="523" type="line"/>
      <point x="328" y="572"/>
      <point x="333" y="604"/>
      <point x="333" y="623" type="curve" smooth="yes"/>
      <point x="333" y="640"/>
      <point x="325" y="649"/>
      <point x="310" y="649" type="curve" smooth="yes"/>
      <point x="297" y="649"/>
      <point x="287" y="643"/>
      <point x="280" y="630" type="curve" smooth="yes"/>
      <point x="272" y="616"/>
      <point x="265" y="596"/>
      <point x="260" y="569" type="curve" smooth="yes"/>
      <point x="233" y="438" type="line"/>
      <point x="254" y="449"/>
      <point x="271" y="456"/>
      <point x="290" y="456" type="curve" smooth="yes"/>
      <point x="346" y="456"/>
      <point x="370" y="427"/>
      <point x="379" y="394" type="curve" smooth="yes"/>
      <point x="388" y="361"/>
      <point x="382" y="321"/>
      <point x="377" y="301" type="curve" smooth="yes"/>
    </contour>
    <contour>
      <point x="165" y="119" type="line" smooth="yes"/>
      <point x="164" y="115"/>
      <point x="164" y="106"/>
      <point x="168" y="99" type="curve" smooth="yes"/>
      <point x="172" y="92"/>
      <point x="179" y="86"/>
      <point x="191" y="86" type="curve" smooth="yes"/>
      <point x="214" y="86"/>
      <point x="228" y="110"/>
      <point x="231" y="119" type="curve"/>
      <point x="278" y="339" type="line"/>
      <point x="279" y="348"/>
      <point x="275" y="372"/>
      <point x="252" y="372" type="curve" smooth="yes"/>
      <point x="229" y="372"/>
      <point x="216" y="353"/>
      <point x="212" y="342" type="curve"/>
    </contour>
  </outline>
</glyph>
<glyph name="seven" format="1">
  <advance width="288"/>
  <unicode hex="0037"/>
  <outline>
    <contour>
      <point x="299" y="628" type="line"/>
      <point x="137" y="628" type="line"/>
      <point x="160" y="735" type="line"/>
      <point x="432" y="735" type="line"/>
      <point x="409" y="627" type="line"/>
      <point x="168" y="0" type="line"/>
      <point x="56" y="0" type="line"/>
    </contour>
  </outline>
</glyph>
<glyph name="eight" format="1">
  <advance width="340"/>
  <unicode hex="0038"/>
  <outline>
    <contour>
      <point x="347" y="157" type="line"/>
      <point x="346" y="154"/>
      <point x="344" y="147"/>
      <point x="342" y="138" type="curve" smooth="yes"/>
      <point x="337" y="119"/>
      <point x="326" y="94"/>
      <point x="309" y="68" type="curve" smooth="yes"/>
      <point x="292" y="42"/>
      <point x="265" y="18"/>
      <point x="230" y="3" type="curve" smooth="yes"/>
      <point x="212" y="-4"/>
      <point x="191" y="-8"/>
      <point x="168" y="-8" type="curve" smooth="yes"/>
      <point x="121" y="-8"/>
      <point x="92" y="8"/>
      <point x="76" y="31" type="curve" smooth="yes"/>
      <point x="60" y="54"/>
      <point x="54" y="81"/>
      <point x="54" y="106" type="curve" smooth="yes"/>
      <point x="54" y="130"/>
      <point x="56" y="150"/>
      <point x="59" y="157" type="curve"/>
      <point x="77" y="243" type="line" smooth="yes"/>
      <point x="89" y="299"/>
      <point x="120" y="353"/>
      <point x="164" y="388" type="curve"/>
      <point x="137" y="421"/>
      <point x="132" y="472"/>
      <point x="143" y="523" type="curve" smooth="yes"/>
      <point x="156" y="585" type="line" smooth="yes"/>
      <point x="157" y="590"/>
      <point x="161" y="601"/>
      <point x="166" y="618" type="curve" smooth="yes"/>
      <point x="176" y="652"/>
      <point x="203" y="692"/>
      <point x="245" y="721" type="curve" smooth="yes"/>
      <point x="266" y="736"/>
      <point x="293" y="743"/>
      <point x="327" y="743" type="curve" smooth="yes"/>
      <point x="395" y="743"/>
      <point x="421" y="708"/>
      <point x="432" y="671" type="curve" smooth="yes"/>
      <point x="437" y="652"/>
      <point x="437" y="633"/>
      <point x="437" y="618" type="curve"/>
      <point x="436" y="602"/>
      <point x="433" y="589"/>
      <point x="432" y="585" type="curve" smooth="yes"/>
      <point x="419" y="523" type="line" smooth="yes"/>
      <point x="408" y="472"/>
      <point x="380" y="421"/>
      <point x="340" y="388" type="curve"/>
      <point x="371" y="353"/>
      <point x="377" y="299"/>
      <point x="365" y="243" type="curve" smooth="yes"/>
    </contour>
    <contour>
      <point x="318" y="547" type="curve"/>
      <point x="325" y="582"/>
      <point x="328" y="606"/>
      <point x="329" y="623" type="curve"/>
      <point x="329" y="640"/>
      <point x="322" y="648"/>
      <point x="307" y="648" type="curve" smooth="yes"/>
      <point x="283" y="648"/>
      <point x="275" y="622"/>
      <point x="267" y="593" type="curve" smooth="yes"/>
      <point x="258" y="564"/>
      <point x="250" y="530"/>
      <point x="246" y="499" type="curve" smooth="yes"/>
      <point x="241" y="468"/>
      <point x="233" y="436"/>
      <point x="262" y="436" type="curve" smooth="yes"/>
      <point x="290" y="436"/>
      <point x="298" y="469"/>
      <point x="306" y="497" type="curve"/>
      <point x="309" y="511"/>
      <point x="313" y="528"/>
    </contour>
    <contour>
      <point x="251" y="200" type="curve" smooth="yes"/>
      <point x="260" y="244"/>
      <point x="264" y="277"/>
      <point x="267" y="298" type="curve"/>
      <point x="267" y="319"/>
      <point x="258" y="330"/>
      <point x="240" y="330" type="curve" smooth="yes"/>
      <point x="201" y="330"/>
      <point x="196" y="291"/>
      <point x="187" y="256" type="curve" smooth="yes"/>
      <point x="178" y="221"/>
      <point x="170" y="184"/>
      <point x="166" y="152" type="curve" smooth="yes"/>
      <point x="162" y="120"/>
      <point x="160" y="91"/>
      <point x="189" y="91" type="curve" smooth="yes"/>
      <point x="226" y="91"/>
      <point x="232" y="127"/>
      <point x="240" y="154" type="curve" smooth="yes"/>
      <point x="244" y="167"/>
      <point x="248" y="183"/>
    </contour>
  </outline>
</glyph>
<glyph name="nine" format="1">
  <advance width="342"/>
  <unicode hex="0039"/>
  <outline>
    <contour>
      <point x="152" y="584" type="line" smooth="yes"/>
      <point x="155" y="601"/>
      <point x="165" y="641"/>
      <point x="192" y="677" type="curve" smooth="yes"/>
      <point x="219" y="712"/>
      <point x="258" y="743"/>
      <point x="326" y="743" type="curve" smooth="yes"/>
      <point x="391" y="743"/>
      <point x="421" y="712"/>
      <point x="432" y="677" type="curve" smooth="yes"/>
      <point x="444" y="641"/>
      <point x="437" y="601"/>
      <point x="434" y="584" type="curve" smooth="yes"/>
      <point x="345" y="166" type="line" smooth="yes"/>
      <point x="338" y="139"/>
      <point x="329" y="96"/>
      <point x="302" y="60" type="curve" smooth="yes"/>
      <point x="275" y="23"/>
      <point x="235" y="-8"/>
      <point x="167" y="-8" type="curve" smooth="yes"/>
      <point x="99" y="-8"/>
      <point x="71" y="23"/>
      <point x="60" y="60" type="curve" smooth="yes"/>
      <point x="49" y="96"/>
      <point x="56" y="139"/>
      <point x="63" y="166" type="curve" smooth="yes"/>
      <point x="73" y="212" type="line"/>
      <point x="181" y="212" type="line"/>
      <point x="170" y="163"/>
      <point x="164" y="131"/>
      <point x="164" y="112" type="curve" smooth="yes"/>
      <point x="164" y="95"/>
      <point x="172" y="86"/>
      <point x="187" y="86" type="curve" smooth="yes"/>
      <point x="200" y="86"/>
      <point x="210" y="92"/>
      <point x="218" y="105" type="curve" smooth="yes"/>
      <point x="225" y="117"/>
      <point x="231" y="137"/>
      <point x="237" y="166" type="curve" smooth="yes"/>
      <point x="266" y="304" type="line"/>
      <point x="245" y="293"/>
      <point x="227" y="286"/>
      <point x="208" y="286" type="curve" smooth="yes"/>
      <point x="152" y="286"/>
      <point x="128" y="315"/>
      <point x="119" y="348" type="curve" smooth="yes"/>
      <point x="110" y="381"/>
      <point x="117" y="421"/>
      <point x="121" y="441" type="curve" smooth="yes"/>
    </contour>
    <contour>
      <point x="332" y="616" type="line"/>
      <point x="333" y="625"/>
      <point x="331" y="649"/>
      <point x="306" y="649" type="curve" smooth="yes"/>
      <point x="283" y="649"/>
      <point x="269" y="625"/>
      <point x="266" y="616" type="curve"/>
      <point x="221" y="403" type="line"/>
      <point x="218" y="394"/>
      <point x="224" y="370"/>
      <point x="247" y="370" type="curve" smooth="yes"/>
      <point x="270" y="370"/>
      <point x="283" y="389"/>
      <point x="287" y="400" type="curve"/>
    </contour>
  </outline>
</glyph>
<glyph name="less" format="1">
  <advance width="517"/>
  <unicode hex="003C"/>
  <outline>
    <contour>
      <point x="119" y="395" type="line"/>
      <point x="614" y="627" type="line"/>
      <point x="593" y="530" type="line"/>
      <point x="215" y="356" type="line"/>
      <point x="519" y="182" type="line"/>
      <point x="499" y="85" type="line"/>
      <point x="103" y="317" type="line"/>
    </contour>
  </outline>
</glyph>
<glyph name="equal" format="1">
  <advance width="517"/>
  <unicode hex="003D"/>
  <outline>
    <contour>
      <point x="143" y="506" type="line"/>
      <point x="588" y="506" type="line"/>
      <point x="570" y="422" type="line"/>
      <point x="125" y="422" type="line"/>
    </contour>
    <contour>
      <point x="103" y="317" type="line"/>
      <point x="548" y="317" type="line"/>
      <point x="530" y="233" type="line"/>
      <point x="85" y="233" type="line"/>
    </contour>
  </outline>
</glyph>
<glyph name="question" format="1">
  <advance width="315"/>
  <unicode hex="003F"/>
  <outline>
    <contour>
      <point x="145" y="198" type="line"/>
      <point x="171" y="323" type="line" smooth="yes"/>
      <point x="182" y="376"/>
      <point x="201" y="419"/>
      <point x="221" y="455" type="curve" smooth="yes"/>
      <point x="242" y="491"/>
      <point x="265" y="519"/>
      <point x="285" y="544" type="curve" smooth="yes"/>
      <point x="304" y="567"/>
      <point x="317" y="586"/>
      <point x="323" y="599" type="curve" smooth="yes"/>
      <point x="326" y="606"/>
      <point x="328" y="616"/>
      <point x="325" y="627" type="curve" smooth="yes"/>
      <point x="322" y="638"/>
      <point x="315" y="645"/>
      <point x="300" y="645" type="curve" smooth="yes"/>
      <point x="281" y="645"/>
      <point x="266" y="633"/>
      <point x="251" y="618" type="curve" smooth="yes"/>
      <point x="236" y="602"/>
      <point x="225" y="583"/>
      <point x="221" y="574" type="curve"/>
      <point x="142" y="615" type="line"/>
      <point x="151" y="631"/>
      <point x="174" y="662"/>
      <point x="205" y="690" type="curve" smooth="yes"/>
      <point x="236" y="717"/>
      <point x="275" y="740"/>
      <point x="322" y="739" type="curve" smooth="yes"/>
      <point x="378" y="738"/>
      <point x="406" y="714"/>
      <point x="418" y="683" type="curve" smooth="yes"/>
      <point x="429" y="652"/>
      <point x="426" y="619"/>
      <point x="422" y="599" type="curve" smooth="yes"/>
      <point x="413" y="558"/>
      <point x="389" y="528"/>
      <point x="360" y="492" type="curve" smooth="yes"/>
      <point x="352" y="481"/>
      <point x="345" y="471"/>
      <point x="334" y="460" type="curve"/>
      <point x="315" y="436"/>
      <point x="296" y="408"/>
      <point x="281" y="376" type="curve" smooth="yes"/>
      <point x="274" y="359"/>
      <point x="268" y="342"/>
      <point x="264" y="323" type="curve" smooth="yes"/>
      <point x="238" y="198" type="line"/>
    </contour>
    <contour>
      <point x="120" y="111" type="line"/>
      <point x="225" y="111" type="line"/>
      <point x="202" y="0" type="line"/>
      <point x="97" y="0" type="line"/>
    </contour>
  </outline>
</glyph>
<glyph name="B" format="1">
  <advance width="364"/>
  <unicode hex="0042"/>
  <outline>
    <contour>
      <point x="40" y="0" type="line"/>
      <point x="196" y="735" type="line"/>
      <point x="291" y="735" type="line" smooth="yes"/>
      <point x="355" y="735"/>
      <point x="402" y="723"/>
      <point x="429" y="692" type="curve" smooth="yes"/>
      <point x="456" y="661"/>
      <point x="462" y="613"/>
      <point x="446" y="540" type="curve" smooth="yes"/>
      <point x="439" y="505"/>
      <point x="430" y="479"/>
      <point x="414" y="455" type="curve" smooth="yes"/>
      <point x="398" y="431"/>
      <point x="378" y="411"/>
      <point x="347" y="388" type="curve"/>
      <point x="394" y="359"/>
      <point x="400" y="280"/>
      <point x="384" y="208" type="curve" smooth="yes"/>
      <point x="372" y="152"/>
      <point x="352" y="105"/>
      <point x="319" y="66" type="curve" smooth="yes"/>
      <point x="284" y="27"/>
      <point x="237" y="3"/>
      <point x="173" y="0" type="curve" smooth="yes"/>
    </contour>
    <contour>
      <point x="239" y="432" type="line"/>
      <point x="248" y="432"/>
      <point x="269" y="431"/>
      <point x="290" y="443" type="curve" smooth="yes"/>
      <point x="310" y="455"/>
      <point x="329" y="479"/>
      <point x="340" y="530" type="curve" smooth="yes"/>
      <point x="345" y="555"/>
      <point x="346" y="575"/>
      <point x="343" y="588" type="curve" smooth="yes"/>
      <point x="336" y="615"/>
      <point x="320" y="626"/>
      <point x="302" y="627" type="curve"/>
      <point x="293" y="628"/>
      <point x="286" y="628"/>
      <point x="281" y="628" type="curve"/>
    </contour>
    <contour>
      <point x="170" y="107" type="line"/>
      <point x="179" y="107"/>
      <point x="200" y="105"/>
      <point x="221" y="118" type="curve" smooth="yes"/>
      <point x="241" y="131"/>
      <point x="262" y="160"/>
      <point x="274" y="220" type="curve" smooth="yes"/>
      <point x="281" y="250"/>
      <point x="283" y="273"/>
      <point x="280" y="289" type="curve" smooth="yes"/>
      <point x="274" y="320"/>
      <point x="258" y="332"/>
      <point x="239" y="333" type="curve"/>
      <point x="230" y="333"/>
      <point x="223" y="333"/>
      <point x="218" y="333" type="curve"/>
    </contour>
  </outline>
</glyph>
<glyph name="K" format="1">
  <advance width="375"/>
  <unicode hex="004B"/>
  <outline>
    <contour>
      <point x="304" y="735" type="line"/>
      <point x="249" y="478" type="line"/>
      <point x="253" y="478" type="line"/>
      <point x="261" y="490" type="line"/>
      <point x="403" y="735" type="line"/>
      <point x="508" y="735" type="line"/>
      <point x="357" y="493" type="line"/>
      <point x="365" y="0" type="line"/>
      <point x="260" y="0" type="line"/>
      <point x="253" y="320" type="line"/>
      <point x="253" y="335" type="line"/>
      <point x="250" y="335" type="line"/>
      <point x="241" y="320" type="line"/>
      <point x="203" y="260" type="line"/>
      <point x="148" y="0" type="line"/>
      <point x="40" y="0" type="line"/>
      <point x="196" y="735" type="line"/>
    </contour>
  </outline>
</glyph>
<glyph name="P" format="1">
  <advance width="352"/>
  <unicode hex="0050"/>
  <outline>
    <contour>
      <point x="196" y="735" type="line"/>
      <point x="304" y="735" type="line" smooth="yes"/>
      <point x="351" y="735"/>
      <point x="395" y="724"/>
      <point x="424" y="689" type="curve" smooth="yes"/>
      <point x="453" y="654"/>
      <point x="466" y="599"/>
      <point x="447" y="515" type="curve" smooth="yes"/>
      <point x="428" y="431"/>
      <point x="393" y="377"/>
      <point x="350" y="342" type="curve" smooth="yes"/>
      <point x="307" y="307"/>
      <point x="257" y="294"/>
      <point x="210" y="294" type="curve"/>
      <point x="148" y="0" type="line"/>
      <point x="40" y="0" type="line"/>
    </contour>
    <contour>
      <point x="233" y="404" type="line"/>
      <point x="266" y="404"/>
      <point x="289" y="410"/>
      <point x="304" y="427" type="curve"/>
      <point x="320" y="443"/>
      <point x="328" y="470"/>
      <point x="337" y="511" type="curve" smooth="yes"/>
      <point x="346" y="552"/>
      <point x="349" y="580"/>
      <point x="341" y="599" type="curve" smooth="yes"/>
      <point x="333" y="616"/>
      <point x="313" y="625"/>
      <point x="280" y="625" type="curve"/>
    </contour>
  </outline>
</glyph>
<glyph name="W" format="1">
  <advance width="496"/>
  <unicode hex="0057"/>
  <outline>
    <contour>
      <point x="185" y="0" type="line"/>
      <point x="101" y="0" type="line"/>
      <point x="158" y="735" type="line"/>
      <point x="258" y="735" type="line"/>
      <point x="220" y="353" type="line"/>
      <point x="216" y="329" type="line"/>
      <point x="224" y="329" type="line"/>
      <point x="233" y="353" type="line"/>
      <point x="360" y="735" type="line"/>
      <point x="438" y="735" type="line"/>
      <point x="403" y="353" type="line"/>
      <point x="400" y="329" type="line"/>
      <point x="408" y="329" type="line"/>
      <point x="416" y="353" type="line"/>
      <point x="540" y="735" type="line"/>
      <point x="640" y="735" type="line"/>
      <point x="385" y="0" type="line"/>
      <point x="301" y="0" type="line"/>
      <point x="324" y="348" type="line"/>
      <point x="328" y="391" type="line"/>
      <point x="324" y="391" type="line"/>
      <point x="308" y="348" type="line"/>
    </contour>
  </outline>
</glyph>
<glyph name="X" format="1">
  <advance width="360"/>
  <unicode hex="0058"/>
  <outline>
    <contour>
      <point x="114" y="0" type="line"/>
      <point x="8" y="0" type="line"/>
      <point x="209" y="386" type="line"/>
      <point x="166" y="735" type="line"/>
      <point x="272" y="735" type="line"/>
      <point x="291" y="549" type="line"/>
      <point x="292" y="540" type="line"/>
      <point x="296" y="540" type="line"/>
      <point x="301" y="549" type="line"/>
      <point x="400" y="735" type="line"/>
      <point x="506" y="735" type="line"/>
      <point x="315" y="386" type="line"/>
      <point x="352" y="0" type="line"/>
      <point x="246" y="0" type="line"/>
      <point x="230" y="219" type="line"/>
      <point x="230" y="228" type="line"/>
      <point x="226" y="228" type="line"/>
      <point x="222" y="219" type="line"/>
    </contour>
  </outline>
</glyph>
<glyph name="Y" format="1">
  <advance width="342"/>
  <unicode hex="0059"/>
  <outline>
    <contour>
      <point x="273" y="500" type="line"/>
      <point x="274" y="493" type="line"/>
      <point x="276" y="493" type="line"/>
      <point x="281" y="500" type="line"/>
      <point x="385" y="735" type="line"/>
      <point x="491" y="735" type="line"/>
      <point x="291" y="313" type="line"/>
      <point x="225" y="0" type="line"/>
      <point x="117" y="0" type="line"/>
      <point x="183" y="313" type="line"/>
      <point x="163" y="735" type="line"/>
      <point x="269" y="735" type="line"/>
    </contour>
  </outline>
</glyph>
<glyph name="bracketleft" format="1">
  <advance width="263"/>
  <unicode hex="005B"/>
  <outline>
    <contour>
      <point x="370" y="639" type="line"/>
      <point x="271" y="639" type="line"/>
      <point x="134" y="-8" type="line"/>
      <point x="233" y="-8" type="line"/>
      <point x="212" y="-104" type="line"/>
      <point x="17" y="-104" type="line"/>
      <point x="196" y="735" type="line"/>
      <point x="391" y="735" type="line"/>
    </contour>
  </outline>
</glyph>
<glyph name="underscore" format="1">
  <advance width="591"/>
  <unicode hex="005F"/>
  <outline>
    <contour>
      <point x="20" y="-75" type="line"/>
      <point x="539" y="-75" type="line"/>
      <point x="521" y="-159" type="line"/>
      <point x="2" y="-159" type="line"/>
    </contour>
  </outline>
</glyph>
<glyph name="grave" format="1">
  <advance width="500"/>
  <unicode hex="0060"/>
  <outline>
    <contour>
      <point x="402" y="727" type="line"/>
      <point x="435" y="637" type="line"/>
      <point x="357" y="637" type="line"/>
      <point x="297" y="727" type="line"/>
    </contour>
  </outline>
</glyph>
<glyph name="c" format="1">
  <advance width="315"/>
  <unicode hex="0063"/>
  <outline>
    <contour>
      <point x="159" y="126" type="line" smooth="yes"/>
      <point x="155" y="106"/>
      <point x="151" y="82"/>
      <point x="178" y="82" type="curve" smooth="yes"/>
      <point x="201" y="82"/>
      <point x="209" y="93"/>
      <point x="216" y="126" type="curve" smooth="yes"/>
      <point x="232" y="202" type="line"/>
      <point x="333" y="202" type="line"/>
      <point x="322" y="149" type="line" smooth="yes"/>
      <point x="309" y="88"/>
      <point x="290" y="49"/>
      <point x="263" y="25" type="curve" smooth="yes"/>
      <point x="236" y="1"/>
      <point x="202" y="-8"/>
      <point x="159" y="-8" type="curve" smooth="yes"/>
      <point x="123" y="-8"/>
      <point x="93" y="2"/>
      <point x="74" y="27" type="curve"/>
      <point x="57" y="52"/>
      <point x="51" y="93"/>
      <point x="64" y="154" type="curve" smooth="yes"/>
      <point x="115" y="393" type="line" smooth="yes"/>
      <point x="128" y="454"/>
      <point x="151" y="495"/>
      <point x="179" y="520" type="curve" smooth="yes"/>
      <point x="207" y="545"/>
      <point x="242" y="555"/>
      <point x="278" y="555" type="curve" smooth="yes"/>
      <point x="321" y="555"/>
      <point x="352" y="546"/>
      <point x="368" y="522" type="curve" smooth="yes"/>
      <point x="385" y="498"/>
      <point x="388" y="459"/>
      <point x="375" y="398" type="curve" smooth="yes"/>
      <point x="366" y="355" type="line"/>
      <point x="265" y="355" type="line"/>
      <point x="279" y="421" type="line" smooth="yes"/>
      <point x="286" y="454"/>
      <point x="282" y="465"/>
      <point x="259" y="465" type="curve" smooth="yes"/>
      <point x="232" y="465"/>
      <point x="226" y="441"/>
      <point x="222" y="421" type="curve" smooth="yes"/>
    </contour>
  </outline>
</glyph>
<glyph name="f" format="1">
  <advance width="232"/>
  <unicode hex="0066"/>
  <outline>
    <contour>
      <point x="61" y="0" type="line"/>
      <point x="157" y="456" type="line"/>
      <point x="106" y="456" type="line"/>
      <point x="126" y="547" type="line"/>
      <point x="177" y="547" type="line"/>
      <point x="180" y="562" type="line" smooth="yes"/>
      <point x="187" y="590"/>
      <point x="195" y="635"/>
      <point x="218" y="672" type="curve" smooth="yes"/>
      <point x="241" y="709"/>
      <point x="274" y="739"/>
      <point x="334" y="739" type="curve" smooth="yes"/>
      <point x="349" y="739"/>
      <point x="361" y="738"/>
      <point x="368" y="735" type="curve"/>
      <point x="379" y="732" type="line"/>
      <point x="361" y="645" type="line"/>
      <point x="360" y="646"/>
      <point x="358" y="646"/>
      <point x="357" y="646" type="curve" smooth="yes"/>
      <point x="355" y="646"/>
      <point x="353" y="646"/>
      <point x="352" y="647" type="curve"/>
      <point x="345" y="648"/>
      <point x="338" y="649"/>
      <point x="331" y="649" type="curve" smooth="yes"/>
      <point x="314" y="649"/>
      <point x="303" y="634"/>
      <point x="295" y="615" type="curve" smooth="yes"/>
      <point x="291" y="605"/>
      <point x="288" y="595"/>
      <point x="286" y="585" type="curve" smooth="yes"/>
      <point x="285" y="580"/>
      <point x="284" y="575"/>
      <point x="283" y="572" type="curve"/>
      <point x="282" y="568"/>
      <point x="282" y="564"/>
      <point x="281" y="561" type="curve"/>
      <point x="278" y="547" type="line"/>
      <point x="329" y="547" type="line"/>
      <point x="309" y="456" type="line"/>
      <point x="258" y="456" type="line"/>
      <point x="162" y="0" type="line"/>
    </contour>
  </outline>
</glyph>
<glyph name="i" format="1">
  <advance width="181"/>
  <unicode hex="0069"/>
  <outline>
    <contour>
      <point x="196" y="735" type="line"/>
      <point x="297" y="735" type="line"/>
      <point x="275" y="634" type="line"/>
      <point x="174" y="634" type="line"/>
    </contour>
    <contour>
      <point x="40" y="0" type="line"/>
      <point x="156" y="547" type="line"/>
      <point x="257" y="547" type="line"/>
      <point x="141" y="0" type="line"/>
    </contour>
  </outline>
</glyph>
<glyph name="r" format="1">
  <advance width="246"/>
  <unicode hex="0072"/>
  <outline>
    <contour>
      <point x="336" y="443" type="line"/>
      <point x="328" y="446"/>
      <point x="319" y="447"/>
      <point x="309" y="447" type="curve" smooth="yes"/>
      <point x="293" y="447"/>
      <point x="273" y="445"/>
      <point x="254" y="430" type="curve"/>
      <point x="231" y="414"/>
      <point x="225" y="397"/>
      <point x="221" y="380" type="curve" smooth="yes"/>
      <point x="141" y="0" type="line"/>
      <point x="40" y="0" type="line"/>
      <point x="156" y="547" type="line"/>
      <point x="257" y="547" type="line"/>
      <point x="244" y="486" type="line"/>
      <point x="247" y="493"/>
      <point x="257" y="510"/>
      <point x="276" y="526" type="curve" smooth="yes"/>
      <point x="295" y="541"/>
      <point x="322" y="555"/>
      <point x="359" y="555" type="curve"/>
    </contour>
  </outline>
</glyph>
<glyph name="u" format="1">
  <advance width="337"/>
  <unicode hex="0075"/>
  <outline>
    <contour>
      <point x="312" y="547" type="line"/>
      <point x="413" y="547" type="line"/>
      <point x="297" y="0" type="line"/>
      <point x="196" y="0" type="line"/>
      <point x="205" y="46" type="line"/>
      <point x="203" y="45"/>
      <point x="199" y="42"/>
      <point x="192" y="36" type="curve" smooth="yes"/>
      <point x="177" y="24"/>
      <point x="161" y="11"/>
      <point x="141" y="0" type="curve"/>
      <point x="129" y="-5"/>
      <point x="119" y="-8"/>
      <point x="112" y="-8" type="curve" smooth="yes"/>
      <point x="85" y="-8"/>
      <point x="69" y="8"/>
      <point x="62" y="29" type="curve"/>
      <point x="54" y="49"/>
      <point x="54" y="76"/>
      <point x="59" y="99" type="curve" smooth="yes"/>
      <point x="154" y="547" type="line"/>
      <point x="255" y="547" type="line"/>
      <point x="163" y="114" type="line" smooth="yes"/>
      <point x="158" y="93"/>
      <point x="170" y="90"/>
      <point x="182" y="90" type="curve" smooth="yes"/>
      <point x="193" y="90"/>
      <point x="200" y="96"/>
      <point x="208" y="103" type="curve"/>
      <point x="212" y="106"/>
      <point x="216" y="111"/>
      <point x="220" y="116" type="curve"/>
    </contour>
  </outline>
</glyph>
<glyph name="bar" format="1">
  <advance width="174"/>
  <unicode hex="007C"/>
  <outline>
    <contour>
      <point x="-13" y="-250" type="line"/>
      <point x="215" y="826" type="line"/>
      <point x="309" y="826" type="line"/>
      <point x="80" y="-250" type="line"/>
    </contour>
  </outline>
</glyph>
<glyph name="braceright" format="1">
  <advance width="336"/>
  <unicode hex="007D"/>
  <outline>
    <contour>
      <point x="320" y="369" type="line"/>
      <point x="317" y="362"/>
      <point x="317" y="345"/>
      <point x="324" y="330" type="curve"/>
      <point x="329" y="314"/>
      <point x="342" y="301"/>
      <point x="369" y="301" type="curve"/>
      <point x="352" y="221" type="line"/>
      <point x="325" y="220"/>
      <point x="306" y="206"/>
      <point x="294" y="191" type="curve" smooth="yes"/>
      <point x="282" y="175"/>
      <point x="277" y="160"/>
      <point x="274" y="153" type="curve"/>
      <point x="233" y="-41" type="line" smooth="yes"/>
      <point x="217" y="-117"/>
      <point x="193" y="-161"/>
      <point x="154" y="-188" type="curve" smooth="yes"/>
      <point x="114" y="-215"/>
      <point x="58" y="-222"/>
      <point x="-18" y="-221" type="curve"/>
      <point x="-1" y="-137" type="line"/>
      <point x="42" y="-137"/>
      <point x="70" y="-134"/>
      <point x="93" y="-119" type="curve" smooth="yes"/>
      <point x="116" y="-104"/>
      <point x="128" y="-81"/>
      <point x="137" y="-41" type="curve" smooth="yes"/>
      <point x="178" y="153" type="line" smooth="yes"/>
      <point x="189" y="205"/>
      <point x="219" y="236"/>
      <point x="263" y="261" type="curve"/>
      <point x="228" y="285"/>
      <point x="213" y="316"/>
      <point x="224" y="369" type="curve" smooth="yes"/>
      <point x="265" y="563" type="line" smooth="yes"/>
      <point x="274" y="603"/>
      <point x="271" y="626"/>
      <point x="255" y="641" type="curve" smooth="yes"/>
      <point x="239" y="656"/>
      <point x="211" y="659"/>
      <point x="168" y="659" type="curve"/>
      <point x="185" y="743" type="line"/>
      <point x="264" y="744"/>
      <point x="316" y="737"/>
      <point x="344" y="710" type="curve" smooth="yes"/>
      <point x="373" y="683"/>
      <point x="377" y="639"/>
      <point x="361" y="563" type="curve" smooth="yes"/>
    </contour>
  </outline>
</glyph>
<glyph name="uni0093" format="1">
  <advance width="305"/>
  <unicode hex="0093"/>
  <outline>
    <contour>
      <point x="154" y="605" type="line"/>
      <point x="237" y="735" type="line"/>
      <point x="287" y="735" type="line"/>
      <point x="224" y="605" type="line"/>
      <point x="259" y="605" type="line"/>
      <point x="236" y="494" type="line"/>
      <point x="131" y="494" type="line"/>
    </contour>
    <contour>
      <point x="302" y="605" type="line"/>
      <point x="385" y="735" type="line"/>
      <point x="435" y="735" type="line"/>
      <point x="372" y="605" type="line"/>
      <point x="407" y="605" type="line"/>
      <point x="384" y="494" type="line"/>
      <point x="279" y="494" type="line"/>
    </contour>
  </outline>
</glyph>
<glyph name="uni0094" format="1">
  <advance width="305"/>
  <unicode hex="0094"/>
  <outline>
    <contour>
      <point x="263" y="624" type="line"/>
      <point x="181" y="494" type="line"/>
      <point x="131" y="494" type="line"/>
      <point x="193" y="624" type="line"/>
      <point x="158" y="624" type="line"/>
      <point x="182" y="735" type="line"/>
      <point x="287" y="735" type="line"/>
    </contour>
    <contour>
      <point x="411" y="624" type="line"/>
      <point x="329" y="494" type="line"/>
      <point x="279" y="494" type="line"/>
      <point x="341" y="624" type="line"/>
      <point x="306" y="624" type="line"/>
      <point x="330" y="735" type="line"/>
      <point x="435" y="735" type="line"/>
    </contour>
  </outline>
</glyph>
<glyph name="dieresis" format="1">
  <advance width="500"/>
  <unicode hex="00A8"/>
  <outline>
    <contour>
      <point x="289" y="735" type="line"/>
      <point x="382" y="735" type="line"/>
      <point x="361" y="637" type="line"/>
      <point x="268" y="637" type="line"/>
    </contour>
    <contour>
      <point x="430" y="735" type="line"/>
      <point x="523" y="735" type="line"/>
      <point x="502" y="637" type="line"/>
      <point x="409" y="637" type="line"/>
    </contour>
  </outline>
</glyph>
<glyph name="macron" format="1">
  <advance width="500"/>
  <unicode hex="00AF"/>
  <outline>
    <contour>
      <point x="306" y="721" type="line"/>
      <point x="500" y="721" type="line"/>
      <point x="483" y="642" type="line"/>
      <point x="289" y="642" type="line"/>
    </contour>
  </outline>
</glyph>
<glyph name="acute" format="1">
  <advance width="500"/>
  <unicode hex="00B4"/>
  <outline>
    <contour>
      <point x="511" y="727" type="line"/>
      <point x="413" y="637" type="line"/>
      <point x="335" y="637" type="line"/>
      <point x="406" y="727" type="line"/>
    </contour>
  </outline>
</glyph>
<glyph name="cedilla" format="1">
  <advance width="500"/>
  <unicode hex="00B8"/>
  <outline>
    <contour>
      <point x="265" y="-123" type="line"/>
      <point x="230" y="-188" type="line"/>
      <point x="179" y="-188" type="line"/>
      <point x="212" y="-123" type="line"/>
      <point x="181" y="-123" type="line"/>
      <point x="196" y="-54" type="line"/>
      <point x="280" y="-54" type="line"/>
    </contour>
  </outline>
</glyph>
<glyph name="Atilde" format="1">
  <advance width="374"/>
  <unicode hex="00C3"/>
  <outline>
    <contour>
      <point x="275" y="871" type="line"/>
      <point x="286" y="878"/>
      <point x="298" y="883"/>
      <point x="311" y="887" type="curve" smooth="yes"/>
      <point x="317" y="889"/>
      <point x="324" y="890"/>
      <point x="332" y="890" type="curve" smooth="yes"/>
      <point x="346" y="890"/>
      <point x="360" y="887"/>
      <point x="374" y="882" type="curve"/>
      <point x="388" y="875"/>
      <point x="402" y="872"/>
      <point x="416" y="871" type="curve"/>
      <point x="431" y="871"/>
      <point x="442" y="875"/>
      <point x="454" y="879" type="curve" smooth="yes"/>
      <point x="457" y="880"/>
      <point x="460" y="882"/>
      <point x="463" y="883" type="curve" smooth="yes"/>
      <point x="466" y="884"/>
      <point x="469" y="886"/>
      <point x="472" y="887" type="curve"/>
      <point x="456" y="813" type="line"/>
      <point x="447" y="806"/>
      <point x="435" y="800"/>
      <point x="420" y="797" type="curve"/>
      <point x="413" y="795"/>
      <point x="406" y="794"/>
      <point x="399" y="794" type="curve" smooth="yes"/>
      <point x="384" y="794"/>
      <point x="370" y="797"/>
      <point x="358" y="803" type="curve"/>
      <point x="346" y="808"/>
      <point x="332" y="812"/>
      <point x="315" y="813" type="curve"/>
      <point x="300" y="813"/>
      <point x="288" y="809"/>
      <point x="277" y="805" type="curve" smooth="yes"/>
      <point x="274" y="804"/>
      <point x="271" y="802"/>
      <point x="268" y="801" type="curve" smooth="yes"/>
      <point x="265" y="800"/>
      <point x="262" y="798"/>
      <point x="259" y="797" type="curve"/>
    </contour>
    <contour>
      <point x="10" y="0" type="line"/>
      <point x="277" y="735" type="line"/>
      <point x="409" y="735" type="line"/>
      <point x="364" y="0" type="line"/>
      <point x="259" y="0" type="line"/>
      <point x="270" y="150" type="line"/>
      <point x="166" y="150" type="line"/>
      <point x="115" y="0" type="line"/>
    </contour>
    <contour>
      <point x="298" y="496" type="line"/>
      <point x="299" y="515" type="line"/>
      <point x="293" y="515" type="line"/>
      <point x="286" y="496" type="line"/>
      <point x="206" y="264" type="line"/>
      <point x="280" y="264" type="line"/>
    </contour>
  </outline>
</glyph>
<glyph name="Eacute" format="1">
  <advance width="307"/>
  <unicode hex="00C9"/>
  <outline>
    <contour>
      <point x="461" y="890" type="line"/>
      <point x="363" y="800" type="line"/>
      <point x="285" y="800" type="line"/>
      <point x="356" y="890" type="line"/>
    </contour>
    <contour>
      <point x="196" y="735" type="line"/>
      <point x="443" y="735" type="line"/>
      <point x="419" y="624" type="line"/>
      <point x="280" y="624" type="line"/>
      <point x="239" y="431" type="line"/>
      <point x="339" y="431" type="line"/>
      <point x="314" y="313" type="line"/>
      <point x="214" y="313" type="line"/>
      <point x="171" y="111" type="line"/>
      <point x="310" y="111" type="line"/>
      <point x="287" y="0" type="line"/>
      <point x="40" y="0" type="line"/>
    </contour>
  </outline>
</glyph>
<glyph name="Idieresis" format="1">
  <advance width="182"/>
  <unicode hex="00CF"/>
  <outline>
    <contour>
      <point x="164" y="898" type="line"/>
      <point x="257" y="898" type="line"/>
      <point x="237" y="800" type="line"/>
      <point x="144" y="800" type="line"/>
    </contour>
    <contour>
      <point x="305" y="898" type="line"/>
      <point x="398" y="898" type="line"/>
      <point x="378" y="800" type="line"/>
      <point x="285" y="800" type="line"/>
    </contour>
    <contour>
      <point x="193" y="735" type="line"/>
      <point x="301" y="735" type="line"/>
      <point x="145" y="0" type="line"/>
      <point x="37" y="0" type="line"/>
    </contour>
  </outline>
</glyph>
<glyph name="Oslash" format="1">
  <advance width="354"/>
  <unicode hex="00D8"/>
  <outline>
    <contour>
      <point x="26" y="-10" type="line"/>
      <point x="66" y="67" type="line"/>
      <point x="59" y="87"/>
      <point x="60" y="108"/>
      <point x="61" y="124" type="curve"/>
      <point x="62" y="129"/>
      <point x="62" y="133"/>
      <point x="63" y="138" type="curve"/>
      <point x="63" y="142"/>
      <point x="64" y="146"/>
      <point x="65" y="151" type="curve" smooth="yes"/>
      <point x="157" y="584" type="line" smooth="yes"/>
      <point x="164" y="613"/>
      <point x="175" y="639"/>
      <point x="191" y="663" type="curve"/>
      <point x="206" y="683"/>
      <point x="222" y="703"/>
      <point x="245" y="718" type="curve" smooth="yes"/>
      <point x="268" y="733"/>
      <point x="298" y="743"/>
      <point x="334" y="743" type="curve" smooth="yes"/>
      <point x="365" y="743"/>
      <point x="389" y="736"/>
      <point x="407" y="722" type="curve"/>
      <point x="419" y="745" type="line"/>
      <point x="479" y="745" type="line"/>
      <point x="441" y="672" type="line"/>
      <point x="448" y="651"/>
      <point x="448" y="629"/>
      <point x="448" y="612" type="curve"/>
      <point x="447" y="607"/>
      <point x="447" y="602"/>
      <point x="447" y="598" type="curve" smooth="yes"/>
      <point x="447" y="593"/>
      <point x="446" y="589"/>
      <point x="445" y="584" type="curve" smooth="yes"/>
      <point x="353" y="151" type="line"/>
      <point x="345" y="121"/>
      <point x="333" y="94"/>
      <point x="318" y="71" type="curve"/>
      <point x="303" y="51"/>
      <point x="286" y="32"/>
      <point x="263" y="17" type="curve" smooth="yes"/>
      <point x="239" y="0"/>
      <point x="210" y="-8"/>
      <point x="175" y="-8" type="curve" smooth="yes"/>
      <point x="144" y="-8"/>
      <point x="119" y="-1"/>
      <point x="101" y="13" type="curve"/>
      <point x="89" y="-10" type="line"/>
    </contour>
    <contour>
      <point x="216" y="355" type="line"/>
      <point x="338" y="589" type="line"/>
      <point x="339" y="595"/>
      <point x="339" y="605"/>
      <point x="338" y="618" type="curve"/>
      <point x="335" y="629"/>
      <point x="328" y="638"/>
      <point x="312" y="638" type="curve" smooth="yes"/>
      <point x="293" y="638"/>
      <point x="281" y="624"/>
      <point x="274" y="611" type="curve" smooth="yes"/>
      <point x="270" y="603"/>
      <point x="267" y="594"/>
      <point x="265" y="584" type="curve" smooth="yes"/>
    </contour>
    <contour>
      <point x="295" y="389" type="line"/>
      <point x="173" y="151" type="line"/>
      <point x="168" y="132"/>
      <point x="170" y="116"/>
      <point x="178" y="105" type="curve" smooth="yes"/>
      <point x="182" y="100"/>
      <point x="188" y="97"/>
      <point x="197" y="97" type="curve" smooth="yes"/>
      <point x="216" y="97"/>
      <point x="228" y="109"/>
      <point x="235" y="124" type="curve" smooth="yes"/>
      <point x="238" y="130"/>
      <point x="242" y="139"/>
      <point x="245" y="151" type="curve" smooth="yes"/>
    </contour>
  </outline>
</glyph>
<glyph name="germandbls" format="1">
  <advance width="358"/>
  <unicode hex="00DF"/>
  <outline>
    <contour>
      <point x="285" y="547" type="line"/>
      <point x="308" y="547"/>
      <point x="331" y="569"/>
      <point x="339" y="604" type="curve" smooth="yes"/>
      <point x="346" y="631"/>
      <point x="336" y="653"/>
      <point x="307" y="653" type="curve" smooth="yes"/>
      <point x="282" y="653"/>
      <point x="266" y="630"/>
      <point x="261" y="603" type="curve" smooth="yes"/>
      <point x="133" y="0" type="line"/>
      <point x="32" y="0" type="line"/>
      <point x="160" y="603" type="line" smooth="yes"/>
      <point x="168" y="640"/>
      <point x="185" y="676"/>
      <point x="214" y="701" type="curve" smooth="yes"/>
      <point x="242" y="726"/>
      <point x="278" y="743"/>
      <point x="326" y="743" type="curve" smooth="yes"/>
      <point x="371" y="743"/>
      <point x="402" y="727"/>
      <point x="418" y="702" type="curve" smooth="yes"/>
      <point x="433" y="677"/>
      <point x="437" y="641"/>
      <point x="429" y="604" type="curve" smooth="yes"/>
      <point x="421" y="568"/>
      <point x="399" y="539"/>
      <point x="368" y="519" type="curve"/>
      <point x="388" y="506"/>
      <point x="401" y="485"/>
      <point x="406" y="446" type="curve" smooth="yes"/>
      <point x="411" y="407"/>
      <point x="407" y="354"/>
      <point x="391" y="281" type="curve" smooth="yes"/>
      <point x="366" y="160"/>
      <point x="336" y="89"/>
      <point x="300" y="49" type="curve" smooth="yes"/>
      <point x="263" y="9"/>
      <point x="221" y="0"/>
      <point x="169" y="0" type="curve"/>
      <point x="188" y="94" type="line"/>
      <point x="208" y="94"/>
      <point x="227" y="100"/>
      <point x="242" y="127" type="curve" smooth="yes"/>
      <point x="258" y="154"/>
      <point x="273" y="201"/>
      <point x="290" y="281" type="curve" smooth="yes"/>
      <point x="299" y="324"/>
      <point x="306" y="358"/>
      <point x="309" y="384" type="curve" smooth="yes"/>
      <point x="312" y="409"/>
      <point x="312" y="429"/>
      <point x="310" y="443" type="curve" smooth="yes"/>
      <point x="306" y="471"/>
      <point x="290" y="478"/>
      <point x="270" y="478" type="curve"/>
    </contour>
  </outline>
</glyph>
<glyph name="adieresis" format="1">
  <advance width="333"/>
  <unicode hex="00E4"/>
  <outline>
    <contour>
      <point x="206" y="735" type="line"/>
      <point x="299" y="735" type="line"/>
      <point x="278" y="637" type="line"/>
      <point x="185" y="637" type="line"/>
    </contour>
    <contour>
      <point x="347" y="735" type="line"/>
      <point x="440" y="735" type="line"/>
      <point x="419" y="637" type="line"/>
      <point x="326" y="637" type="line"/>
    </contour>
    <contour>
      <point x="281" y="417" type="line"/>
      <point x="284" y="426"/>
      <point x="286" y="439"/>
      <point x="285" y="450" type="curve"/>
      <point x="283" y="461"/>
      <point x="276" y="467"/>
      <point x="264" y="467" type="curve" smooth="yes"/>
      <point x="247" y="467"/>
      <point x="238" y="454"/>
      <point x="231" y="438" type="curve"/>
      <point x="228" y="430"/>
      <point x="226" y="421"/>
      <point x="223" y="412" type="curve"/>
      <point x="222" y="407"/>
      <point x="221" y="403"/>
      <point x="220" y="399" type="curve" smooth="yes"/>
      <point x="219" y="394"/>
      <point x="219" y="390"/>
      <point x="218" y="386" type="curve"/>
      <point x="117" y="386" type="line"/>
      <point x="121" y="409" type="line" smooth="yes"/>
      <point x="130" y="449"/>
      <point x="153" y="485"/>
      <point x="182" y="512" type="curve" smooth="yes"/>
      <point x="213" y="539"/>
      <point x="249" y="555"/>
      <point x="288" y="555" type="curve" smooth="yes"/>
      <point x="321" y="555"/>
      <point x="348" y="543"/>
      <point x="367" y="520" type="curve" smooth="yes"/>
      <point x="386" y="497"/>
      <point x="393" y="467"/>
      <point x="385" y="431" type="curve" smooth="yes"/>
      <point x="314" y="95" type="line" smooth="yes"/>
      <point x="303" y="46"/>
      <point x="302" y="24"/>
      <point x="301" y="0" type="curve"/>
      <point x="202" y="0" type="line"/>
      <point x="195" y="11"/>
      <point x="199" y="37"/>
      <point x="202" y="44" type="curve"/>
      <point x="195" y="44" type="line"/>
      <point x="188" y="35"/>
      <point x="176" y="22"/>
      <point x="160" y="11" type="curve" smooth="yes"/>
      <point x="144" y="0"/>
      <point x="123" y="-8"/>
      <point x="103" y="-8" type="curve" smooth="yes"/>
      <point x="90" y="-8"/>
      <point x="70" y="-3"/>
      <point x="58" y="17" type="curve"/>
      <point x="45" y="36"/>
      <point x="38" y="70"/>
      <point x="50" y="127" type="curve" smooth="yes"/>
      <point x="63" y="188"/>
      <point x="90" y="231"/>
      <point x="121" y="262" type="curve" smooth="yes"/>
      <point x="152" y="293"/>
      <point x="186" y="311"/>
      <point x="213" y="324" type="curve" smooth="yes"/>
      <point x="241" y="337"/>
      <point x="261" y="346"/>
      <point x="268" y="357" type="curve"/>
    </contour>
    <contour>
      <point x="249" y="264" type="line"/>
      <point x="194" y="243"/>
      <point x="164" y="194"/>
      <point x="153" y="142" type="curve"/>
      <point x="150" y="133"/>
      <point x="150" y="123"/>
      <point x="151" y="112" type="curve"/>
      <point x="154" y="100"/>
      <point x="158" y="91"/>
      <point x="170" y="91" type="curve" smooth="yes"/>
      <point x="193" y="91"/>
      <point x="215" y="105"/>
      <point x="219" y="124" type="curve" smooth="yes"/>
    </contour>
  </outline>
</glyph>
<glyph name="ae" format="1">
  <advance width="483"/>
  <unicode hex="00E6"/>
  <outline>
    <contour>
      <point x="495" y="196" type="line"/>
      <point x="482" y="133" type="line"/>
      <point x="467" y="80"/>
      <point x="444" y="43"/>
      <point x="401" y="14" type="curve" smooth="yes"/>
      <point x="380" y="-1"/>
      <point x="354" y="-8"/>
      <point x="321" y="-8" type="curve" smooth="yes"/>
      <point x="260" y="-8"/>
      <point x="235" y="23"/>
      <point x="224" y="56" type="curve"/>
      <point x="189" y="20"/>
      <point x="147" y="-8"/>
      <point x="103" y="-8" type="curve" smooth="yes"/>
      <point x="90" y="-8"/>
      <point x="70" y="-3"/>
      <point x="58" y="17" type="curve"/>
      <point x="45" y="36"/>
      <point x="38" y="70"/>
      <point x="50" y="127" type="curve" smooth="yes"/>
      <point x="63" y="188"/>
      <point x="90" y="231"/>
      <point x="121" y="262" type="curve" smooth="yes"/>
      <point x="152" y="293"/>
      <point x="186" y="311"/>
      <point x="213" y="324" type="curve" smooth="yes"/>
      <point x="241" y="337"/>
      <point x="261" y="346"/>
      <point x="268" y="357" type="curve"/>
      <point x="281" y="417" type="line"/>
      <point x="284" y="426"/>
      <point x="286" y="439"/>
      <point x="285" y="450" type="curve"/>
      <point x="283" y="461"/>
      <point x="276" y="467"/>
      <point x="264" y="467" type="curve" smooth="yes"/>
      <point x="247" y="467"/>
      <point x="238" y="454"/>
      <point x="231" y="438" type="curve"/>
      <point x="228" y="430"/>
      <point x="226" y="421"/>
      <point x="223" y="412" type="curve"/>
      <point x="222" y="407"/>
      <point x="221" y="403"/>
      <point x="220" y="399" type="curve" smooth="yes"/>
      <point x="219" y="394"/>
      <point x="219" y="390"/>
      <point x="218" y="386" type="curve"/>
      <point x="117" y="386" type="line"/>
      <point x="121" y="409" type="line" smooth="yes"/>
      <point x="130" y="449"/>
      <point x="153" y="485"/>
      <point x="182" y="512" type="curve" smooth="yes"/>
      <point x="213" y="539"/>
      <point x="249" y="555"/>
      <point x="288" y="555" type="curve" smooth="yes"/>
      <point x="317" y="555"/>
      <point x="340" y="547"/>
      <point x="357" y="530" type="curve"/>
      <point x="380" y="545"/>
      <point x="406" y="555"/>
      <point x="441" y="555" type="curve" smooth="yes"/>
      <point x="473" y="555"/>
      <point x="496" y="546"/>
      <point x="512" y="533" type="curve" smooth="yes"/>
      <point x="528" y="520"/>
      <point x="536" y="501"/>
      <point x="540" y="484" type="curve" smooth="yes"/>
      <point x="545" y="463"/>
      <point x="546" y="441"/>
      <point x="541" y="414" type="curve" smooth="yes"/>
      <point x="508" y="255" type="line"/>
      <point x="341" y="255" type="line"/>
      <point x="315" y="136" type="line"/>
      <point x="312" y="117"/>
      <point x="314" y="101"/>
      <point x="321" y="89" type="curve"/>
      <point x="325" y="84"/>
      <point x="332" y="81"/>
      <point x="341" y="81" type="curve" smooth="yes"/>
      <point x="360" y="81"/>
      <point x="371" y="93"/>
      <point x="378" y="108" type="curve"/>
      <point x="383" y="115"/>
      <point x="386" y="125"/>
      <point x="388" y="136" type="curve" smooth="yes"/>
      <point x="401" y="196" type="line"/>
    </contour>
    <contour>
      <point x="357" y="334" type="line"/>
      <point x="430" y="334" type="line"/>
      <point x="447" y="411" type="line" smooth="yes"/>
      <point x="451" y="432"/>
      <point x="451" y="447"/>
      <point x="443" y="459" type="curve"/>
      <point x="439" y="464"/>
      <point x="432" y="467"/>
      <point x="423" y="467" type="curve" smooth="yes"/>
      <point x="404" y="467"/>
      <point x="393" y="454"/>
      <point x="385" y="439" type="curve" smooth="yes"/>
      <point x="381" y="432"/>
      <point x="377" y="423"/>
      <point x="374" y="411" type="curve" smooth="yes"/>
    </contour>
    <contour>
      <point x="249" y="264" type="line"/>
      <point x="194" y="243"/>
      <point x="164" y="194"/>
      <point x="153" y="142" type="curve"/>
      <point x="150" y="133"/>
      <point x="150" y="123"/>
      <point x="151" y="112" type="curve"/>
      <point x="154" y="100"/>
      <point x="158" y="91"/>
      <point x="170" y="91" type="curve" smooth="yes"/>
      <point x="193" y="91"/>
      <point x="215" y="105"/>
      <point x="219" y="124" type="curve" smooth="yes"/>
    </contour>
  </outline>
</glyph>
<glyph name="igrave" format="1">
  <advance width="181"/>
  <unicode hex="00EC"/>
  <outline>
    <contour>
      <point x="243" y="727" type="line"/>
      <point x="276" y="637" type="line"/>
      <point x="198" y="637" type="line"/>
      <point x="138" y="727" type="line"/>
    </contour>
    <contour>
      <point x="40" y="0" type="line"/>
      <point x="156" y="547" type="line"/>
      <point x="257" y="547" type="line"/>
      <point x="141" y="0" type="line"/>
    </contour>
  </outline>
</glyph>
<glyph name="icircumflex" format="1">
  <advance width="181"/>
  <unicode hex="00EE"/>
  <outline>
    <contour>
      <point x="298" y="727" type="line"/>
      <point x="348" y="637" type="line"/>
      <point x="256" y="637" type="line"/>
      <point x="232" y="672" type="line"/>
      <point x="195" y="637" type="line"/>
      <point x="103" y="637" type="line"/>
      <point x="191" y="727" type="line"/>
    </contour>
    <contour>
      <point x="40" y="0" type="line"/>
      <point x="156" y="547" type="line"/>
      <point x="257" y="547" type="line"/>
      <point x="141" y="0" type="line"/>
    </contour>
  </outline>
</glyph>
<glyph name="idieresis" format="1">
  <advance width="182"/>
  <unicode hex="00EF"/>
  <outline>
    <contour>
      <point x="130" y="735" type="line"/>
      <point x="223" y="735" type="line"/>
      <point x="202" y="637" type="line"/>
      <point x="109" y="637" type="line"/>
    </contour>
    <contour>
      <point x="271" y="735" type="line"/>
      <point x="364" y="735" type="line"/>
      <point x="343" y="637" type="line"/>
      <point x="250" y="637" type="line"/>
    </contour>
    <contour>
      <point x="40" y="0" type="line"/>
      <point x="156" y="547" type="line"/>
      <point x="257" y="547" type="line"/>
      <point x="141" y="0" type="line"/>
    </contour>
  </outline>
</glyph>
<glyph name="eth" format="1">
  <advance width="329"/>
  <unicode hex="00F0"/>
  <outline>
    <contour>
      <point x="341" y="736" type="line"/>
      <point x="347" y="727" type="line"/>
      <point x="348" y="726"/>
      <point x="350" y="724"/>
      <point x="351" y="723" type="curve"/>
      <point x="352" y="721"/>
      <point x="353" y="719"/>
      <point x="354" y="718" type="curve"/>
      <point x="357" y="713"/>
      <point x="359" y="709"/>
      <point x="361" y="706" type="curve"/>
      <point x="415" y="746" type="line"/>
      <point x="435" y="714" type="line"/>
      <point x="377" y="671" type="line"/>
      <point x="398" y="623"/>
      <point x="413" y="553"/>
      <point x="392" y="453" type="curve" smooth="yes"/>
      <point x="324" y="133" type="line"/>
      <point x="309" y="80"/>
      <point x="287" y="43"/>
      <point x="244" y="14" type="curve" smooth="yes"/>
      <point x="223" y="-1"/>
      <point x="197" y="-8"/>
      <point x="164" y="-8" type="curve" smooth="yes"/>
      <point x="132" y="-8"/>
      <point x="109" y="1"/>
      <point x="94" y="15" type="curve" smooth="yes"/>
      <point x="78" y="29"/>
      <point x="70" y="45"/>
      <point x="66" y="64" type="curve" smooth="yes"/>
      <point x="61" y="87"/>
      <point x="61" y="111"/>
      <point x="65" y="136" type="curve"/>
      <point x="126" y="419" type="line"/>
      <point x="127" y="428"/>
      <point x="135" y="463"/>
      <point x="152" y="495" type="curve" smooth="yes"/>
      <point x="168" y="526"/>
      <point x="194" y="555"/>
      <point x="238" y="555" type="curve" smooth="yes"/>
      <point x="261" y="555"/>
      <point x="283" y="540"/>
      <point x="306" y="517" type="curve"/>
      <point x="310" y="556"/>
      <point x="309" y="589"/>
      <point x="302" y="616" type="curve"/>
      <point x="255" y="581" type="line"/>
      <point x="235" y="612" type="line"/>
      <point x="293" y="655" type="line"/>
      <point x="290" y="660"/>
      <point x="288" y="665"/>
      <point x="287" y="669" type="curve"/>
      <point x="285" y="673"/>
      <point x="283" y="676"/>
      <point x="282" y="679" type="curve"/>
      <point x="279" y="682"/>
      <point x="278" y="684"/>
      <point x="278" y="687" type="curve"/>
    </contour>
    <contour>
      <point x="288" y="411" type="line" smooth="yes"/>
      <point x="293" y="432"/>
      <point x="292" y="448"/>
      <point x="285" y="459" type="curve"/>
      <point x="281" y="464"/>
      <point x="274" y="467"/>
      <point x="265" y="467" type="curve" smooth="yes"/>
      <point x="246" y="467"/>
      <point x="235" y="454"/>
      <point x="228" y="439" type="curve"/>
      <point x="223" y="431"/>
      <point x="220" y="422"/>
      <point x="219" y="411" type="curve"/>
      <point x="160" y="136" type="line" smooth="yes"/>
      <point x="155" y="117"/>
      <point x="156" y="101"/>
      <point x="163" y="89" type="curve"/>
      <point x="167" y="84"/>
      <point x="174" y="81"/>
      <point x="183" y="81" type="curve" smooth="yes"/>
      <point x="202" y="81"/>
      <point x="213" y="93"/>
      <point x="220" y="108" type="curve"/>
      <point x="225" y="116"/>
      <point x="228" y="125"/>
      <point x="229" y="136" type="curve"/>
    </contour>
  </outline>
</glyph>
<glyph name="oslash" format="1">
  <advance width="321"/>
  <unicode hex="00F8"/>
  <outline>
    <contour>
      <point x="52" y="-38" type="line"/>
      <point x="80" y="21" type="line"/>
      <point x="61" y="42"/>
      <point x="55" y="70"/>
      <point x="55" y="94" type="curve" smooth="yes"/>
      <point x="55" y="109"/>
      <point x="56" y="123"/>
      <point x="59" y="136" type="curve" smooth="yes"/>
      <point x="118" y="411" type="line"/>
      <point x="133" y="464"/>
      <point x="155" y="502"/>
      <point x="198" y="533" type="curve" smooth="yes"/>
      <point x="217" y="548"/>
      <point x="244" y="555"/>
      <point x="277" y="555" type="curve" smooth="yes"/>
      <point x="297" y="555"/>
      <point x="313" y="551"/>
      <point x="328" y="546" type="curve"/>
      <point x="346" y="585" type="line"/>
      <point x="383" y="585" type="line"/>
      <point x="355" y="526" type="line"/>
      <point x="374" y="505"/>
      <point x="377" y="478"/>
      <point x="380" y="455" type="curve"/>
      <point x="380" y="442"/>
      <point x="379" y="428"/>
      <point x="377" y="414" type="curve"/>
      <point x="318" y="133" type="line"/>
      <point x="303" y="80"/>
      <point x="281" y="43"/>
      <point x="238" y="14" type="curve" smooth="yes"/>
      <point x="217" y="-1"/>
      <point x="191" y="-8"/>
      <point x="158" y="-8" type="curve" smooth="yes"/>
      <point x="140" y="-8"/>
      <point x="124" y="-5"/>
      <point x="110" y="0" type="curve"/>
      <point x="91" y="-38" type="line"/>
    </contour>
    <contour>
      <point x="171" y="213" type="line"/>
      <point x="282" y="450" type="line"/>
      <point x="279" y="461"/>
      <point x="274" y="467"/>
      <point x="259" y="467" type="curve" smooth="yes"/>
      <point x="240" y="467"/>
      <point x="229" y="454"/>
      <point x="222" y="439" type="curve"/>
      <point x="217" y="431"/>
      <point x="214" y="422"/>
      <point x="213" y="411" type="curve"/>
    </contour>
    <contour>
      <point x="265" y="333" type="line"/>
      <point x="154" y="96" type="line"/>
      <point x="157" y="86"/>
      <point x="164" y="81"/>
      <point x="177" y="81" type="curve" smooth="yes"/>
      <point x="196" y="81"/>
      <point x="207" y="93"/>
      <point x="214" y="108" type="curve"/>
      <point x="219" y="116"/>
      <point x="222" y="125"/>
      <point x="223" y="136" type="curve"/>
    </contour>
  </outline>
</glyph>
<glyph name="udieresis" format="1">
  <advance width="337"/>
  <unicode hex="00FC"/>
  <outline>
    <contour>
      <point x="208" y="735" type="line"/>
      <point x="301" y="735" type="line"/>
      <point x="280" y="637" type="line"/>
      <point x="187" y="637" type="line"/>
    </contour>
    <contour>
      <point x="349" y="735" type="line"/>
      <point x="442" y="735" type="line"/>
      <point x="421" y="637" type="line"/>
      <point x="328" y="637" type="line"/>
    </contour>
    <contour>
      <point x="312" y="547" type="line"/>
      <point x="413" y="547" type="line"/>
      <point x="297" y="0" type="line"/>
      <point x="196" y="0" type="line"/>
      <point x="205" y="46" type="line"/>
      <point x="203" y="45"/>
      <point x="199" y="42"/>
      <point x="192" y="36" type="curve" smooth="yes"/>
      <point x="177" y="24"/>
      <point x="161" y="11"/>
      <point x="141" y="0" type="curve"/>
      <point x="129" y="-5"/>
      <point x="119" y="-8"/>
      <point x="112" y="-8" type="curve" smooth="yes"/>
      <point x="85" y="-8"/>
      <point x="69" y="8"/>
      <point x="62" y="29" type="curve"/>
      <point x="54" y="49"/>
      <point x="54" y="76"/>
      <point x="59" y="99" type="curve" smooth="yes"/>
      <point x="154" y="547" type="line"/>
      <point x="255" y="547" type="line"/>
      <point x="163" y="114" type="line" smooth="yes"/>
      <point x="158" y="93"/>
      <point x="170" y="90"/>
      <point x="182" y="90" type="curve" smooth="yes"/>
      <point x="193" y="90"/>
      <point x="200" y="96"/>
      <point x="208" y="103" type="curve"/>
      <point x="212" y="106"/>
      <point x="216" y="111"/>
      <point x="220" y="116" type="curve"/>
    </contour>
  </outline>
</glyph>
<glyph name="Abreve" format="1">
  <advance width="374"/>
  <unicode hex="0102"/>
  <outline>
    <contour>
      <point x="483" y="871" type="line"/>
      <point x="462" y="854"/>
      <point x="439" y="840"/>
      <point x="410" y="831" type="curve"/>
      <point x="397" y="826"/>
      <point x="381" y="824"/>
      <point x="363" y="824" type="curve" smooth="yes"/>
      <point x="328" y="824"/>
      <point x="303" y="835"/>
      <point x="287" y="847" type="curve" smooth="yes"/>
      <point x="277" y="854"/>
      <point x="269" y="862"/>
      <point x="263" y="871" type="curve"/>
      <point x="326" y="917" type="line"/>
      <point x="339" y="898"/>
      <point x="359" y="894"/>
      <point x="378" y="894" type="curve" smooth="yes"/>
      <point x="397" y="894"/>
      <point x="410" y="898"/>
      <point x="423" y="905" type="curve" smooth="yes"/>
      <point x="429" y="908"/>
      <point x="435" y="912"/>
      <point x="440" y="917" type="curve"/>
    </contour>
    <contour>
      <point x="10" y="0" type="line"/>
      <point x="277" y="735" type="line"/>
      <point x="409" y="735" type="line"/>
      <point x="364" y="0" type="line"/>
      <point x="259" y="0" type="line"/>
      <point x="270" y="150" type="line"/>
      <point x="166" y="150" type="line"/>
      <point x="115" y="0" type="line"/>
    </contour>
    <contour>
      <point x="298" y="496" type="line"/>
      <point x="299" y="515" type="line"/>
      <point x="293" y="515" type="line"/>
      <point x="286" y="496" type="line"/>
      <point x="206" y="264" type="line"/>
      <point x="280" y="264" type="line"/>
    </contour>
  </outline>
</glyph>
<glyph name="Aogonek" format="1">
  <advance width="374"/>
  <unicode hex="0104"/>
  <outline>
    <contour>
      <point x="317" y="0" type="line"/>
      <point x="296" y="-15"/>
      <point x="280" y="-31"/>
      <point x="268" y="-50" type="curve" smooth="yes"/>
      <point x="261" y="-61"/>
      <point x="256" y="-72"/>
      <point x="254" y="-83" type="curve" smooth="yes"/>
      <point x="251" y="-98"/>
      <point x="256" y="-106"/>
      <point x="264" y="-112" type="curve" smooth="yes"/>
      <point x="272" y="-118"/>
      <point x="284" y="-121"/>
      <point x="296" y="-121" type="curve" smooth="yes"/>
      <point x="313" y="-121"/>
      <point x="327" y="-117"/>
      <point x="340" y="-112" type="curve"/>
      <point x="317" y="-179" type="line"/>
      <point x="294" y="-186"/>
      <point x="282" y="-188"/>
      <point x="265" y="-188" type="curve" smooth="yes"/>
      <point x="200" y="-188"/>
      <point x="170" y="-148"/>
      <point x="181" y="-103" type="curve" smooth="yes"/>
      <point x="188" y="-75"/>
      <point x="208" y="-50"/>
      <point x="229" y="-31" type="curve" smooth="yes"/>
      <point x="240" y="-20"/>
      <point x="254" y="-9"/>
      <point x="269" y="0" type="curve"/>
      <point x="259" y="0" type="line"/>
      <point x="270" y="150" type="line"/>
      <point x="166" y="150" type="line"/>
      <point x="115" y="0" type="line"/>
      <point x="10" y="0" type="line"/>
      <point x="277" y="735" type="line"/>
      <point x="409" y="735" type="line"/>
      <point x="364" y="0" type="line"/>
    </contour>
    <contour>
      <point x="280" y="264" type="line"/>
      <point x="298" y="496" type="line"/>
      <point x="299" y="515" type="line"/>
      <point x="293" y="515" type="line"/>
      <point x="286" y="496" type="line"/>
      <point x="206" y="264" type="line"/>
    </contour>
  </outline>
</glyph>
<glyph name="dcroat" format="1">
  <advance width="335"/>
  <unicode hex="0111"/>
  <outline>
    <contour>
      <point x="444" y="597" type="line"/>
      <point x="421" y="597" type="line"/>
      <point x="295" y="0" type="line"/>
      <point x="194" y="0" type="line"/>
      <point x="201" y="36" type="line"/>
      <point x="181" y="20"/>
      <point x="163" y="8"/>
      <point x="142" y="-1" type="curve"/>
      <point x="132" y="-6"/>
      <point x="122" y="-8"/>
      <point x="112" y="-8" type="curve" smooth="yes"/>
      <point x="84" y="-8"/>
      <point x="68" y="8"/>
      <point x="61" y="29" type="curve"/>
      <point x="52" y="49"/>
      <point x="52" y="76"/>
      <point x="57" y="99" type="curve" smooth="yes"/>
      <point x="131" y="448" type="line" smooth="yes"/>
      <point x="136" y="471"/>
      <point x="146" y="498"/>
      <point x="165" y="519" type="curve"/>
      <point x="181" y="539"/>
      <point x="203" y="555"/>
      <point x="231" y="555" type="curve" smooth="yes"/>
      <point x="250" y="555"/>
      <point x="268" y="544"/>
      <point x="281" y="533" type="curve"/>
      <point x="288" y="526"/>
      <point x="295" y="519"/>
      <point x="302" y="511" type="curve"/>
      <point x="320" y="597" type="line"/>
      <point x="299" y="597" type="line"/>
      <point x="320" y="692" type="line"/>
      <point x="341" y="692" type="line"/>
      <point x="350" y="735" type="line"/>
      <point x="451" y="735" type="line"/>
      <point x="442" y="692" type="line"/>
      <point x="465" y="692" type="line"/>
    </contour>
    <contour>
      <point x="284" y="427" type="line" smooth="yes"/>
      <point x="288" y="443"/>
      <point x="276" y="460"/>
      <point x="261" y="460" type="curve" smooth="yes"/>
      <point x="246" y="460"/>
      <point x="231" y="446"/>
      <point x="227" y="427" type="curve" smooth="yes"/>
      <point x="162" y="120" type="line" smooth="yes"/>
      <point x="158" y="101"/>
      <point x="167" y="87"/>
      <point x="182" y="87" type="curve" smooth="yes"/>
      <point x="197" y="87"/>
      <point x="215" y="101"/>
      <point x="219" y="120" type="curve" smooth="yes"/>
    </contour>
  </outline>
</glyph>
<glyph name="Emacron" format="1">
  <advance width="307"/>
  <unicode hex="0112"/>
  <outline>
    <contour>
      <point x="251" y="909" type="line"/>
      <point x="445" y="909" type="line"/>
      <point x="428" y="830" type="line"/>
      <point x="234" y="830" type="line"/>
    </contour>
    <contour>
      <point x="196" y="735" type="line"/>
      <point x="443" y="735" type="line"/>
      <point x="419" y="624" type="line"/>
      <point x="280" y="624" type="line"/>
      <point x="239" y="431" type="line"/>
      <point x="339" y="431" type="line"/>
      <point x="314" y="313" type="line"/>
      <point x="214" y="313" type="line"/>
      <point x="171" y="111" type="line"/>
      <point x="310" y="111" type="line"/>
      <point x="287" y="0" type="line"/>
      <point x="40" y="0" type="line"/>
    </contour>
  </outline>
</glyph>
<glyph name="ebreve" format="1">
  <advance width="322"/>
  <unicode hex="0115"/>
  <outline>
    <contour>
      <point x="417" y="683" type="line"/>
      <point x="396" y="666"/>
      <point x="373" y="652"/>
      <point x="344" y="643" type="curve"/>
      <point x="331" y="638"/>
      <point x="315" y="636"/>
      <point x="297" y="636" type="curve" smooth="yes"/>
      <point x="262" y="636"/>
      <point x="237" y="647"/>
      <point x="221" y="659" type="curve" smooth="yes"/>
      <point x="211" y="666"/>
      <point x="203" y="674"/>
      <point x="197" y="683" type="curve"/>
      <point x="260" y="729" type="line"/>
      <point x="273" y="710"/>
      <point x="293" y="706"/>
      <point x="312" y="706" type="curve" smooth="yes"/>
      <point x="331" y="706"/>
      <point x="344" y="710"/>
      <point x="357" y="717" type="curve" smooth="yes"/>
      <point x="363" y="720"/>
      <point x="369" y="724"/>
      <point x="374" y="729" type="curve"/>
    </contour>
    <contour>
      <point x="334" y="196" type="line"/>
      <point x="321" y="133" type="line"/>
      <point x="306" y="80"/>
      <point x="283" y="43"/>
      <point x="240" y="14" type="curve" smooth="yes"/>
      <point x="219" y="-1"/>
      <point x="193" y="-8"/>
      <point x="160" y="-8" type="curve" smooth="yes"/>
      <point x="95" y="-8"/>
      <point x="69" y="28"/>
      <point x="61" y="64" type="curve" smooth="yes"/>
      <point x="56" y="87"/>
      <point x="56" y="111"/>
      <point x="60" y="136" type="curve"/>
      <point x="119" y="411" type="line"/>
      <point x="134" y="464"/>
      <point x="158" y="502"/>
      <point x="201" y="533" type="curve" smooth="yes"/>
      <point x="220" y="548"/>
      <point x="247" y="555"/>
      <point x="280" y="555" type="curve" smooth="yes"/>
      <point x="312" y="555"/>
      <point x="335" y="546"/>
      <point x="351" y="533" type="curve" smooth="yes"/>
      <point x="367" y="520"/>
      <point x="375" y="501"/>
      <point x="379" y="484" type="curve" smooth="yes"/>
      <point x="384" y="463"/>
      <point x="385" y="441"/>
      <point x="380" y="414" type="curve" smooth="yes"/>
      <point x="347" y="255" type="line"/>
      <point x="180" y="255" type="line"/>
      <point x="154" y="136" type="line"/>
      <point x="151" y="117"/>
      <point x="153" y="101"/>
      <point x="160" y="89" type="curve"/>
      <point x="164" y="84"/>
      <point x="171" y="81"/>
      <point x="180" y="81" type="curve" smooth="yes"/>
      <point x="199" y="81"/>
      <point x="210" y="93"/>
      <point x="217" y="108" type="curve"/>
      <point x="222" y="115"/>
      <point x="225" y="125"/>
      <point x="227" y="136" type="curve" smooth="yes"/>
      <point x="240" y="196" type="line"/>
    </contour>
    <contour>
      <point x="196" y="334" type="line"/>
      <point x="269" y="334" type="line"/>
      <point x="286" y="411" type="line" smooth="yes"/>
      <point x="290" y="432"/>
      <point x="290" y="447"/>
      <point x="282" y="459" type="curve"/>
      <point x="278" y="464"/>
      <point x="271" y="467"/>
      <point x="262" y="467" type="curve" smooth="yes"/>
      <point x="243" y="467"/>
      <point x="232" y="454"/>
      <point x="224" y="439" type="curve" smooth="yes"/>
      <point x="220" y="432"/>
      <point x="216" y="423"/>
      <point x="213" y="411" type="curve" smooth="yes"/>
    </contour>
  </outline>
</glyph>
<glyph name="Eogonek" format="1">
  <advance width="307"/>
  <unicode hex="0118"/>
  <outline>
    <contour>
      <point x="241" y="0" type="line"/>
      <point x="220" y="-15"/>
      <point x="204" y="-31"/>
      <point x="192" y="-50" type="curve" smooth="yes"/>
      <point x="185" y="-61"/>
      <point x="180" y="-72"/>
      <point x="178" y="-83" type="curve" smooth="yes"/>
      <point x="175" y="-98"/>
      <point x="180" y="-106"/>
      <point x="188" y="-112" type="curve" smooth="yes"/>
      <point x="196" y="-118"/>
      <point x="208" y="-121"/>
      <point x="220" y="-121" type="curve" smooth="yes"/>
      <point x="237" y="-121"/>
      <point x="251" y="-117"/>
      <point x="264" y="-112" type="curve"/>
      <point x="241" y="-179" type="line"/>
      <point x="218" y="-186"/>
      <point x="206" y="-188"/>
      <point x="189" y="-188" type="curve" smooth="yes"/>
      <point x="124" y="-188"/>
      <point x="94" y="-148"/>
      <point x="105" y="-103" type="curve" smooth="yes"/>
      <point x="112" y="-75"/>
      <point x="132" y="-50"/>
      <point x="153" y="-31" type="curve" smooth="yes"/>
      <point x="164" y="-20"/>
      <point x="178" y="-9"/>
      <point x="193" y="0" type="curve"/>
      <point x="40" y="0" type="line"/>
      <point x="196" y="735" type="line"/>
      <point x="443" y="735" type="line"/>
      <point x="419" y="624" type="line"/>
      <point x="280" y="624" type="line"/>
      <point x="239" y="431" type="line"/>
      <point x="339" y="431" type="line"/>
      <point x="314" y="313" type="line"/>
      <point x="214" y="313" type="line"/>
      <point x="171" y="111" type="line"/>
      <point x="310" y="111" type="line"/>
      <point x="287" y="0" type="line"/>
    </contour>
  </outline>
</glyph>
<glyph name="Gbreve" format="1">
  <advance width="360"/>
  <unicode hex="011E"/>
  <outline>
    <contour>
      <point x="476" y="871" type="line"/>
      <point x="455" y="854"/>
      <point x="432" y="840"/>
      <point x="403" y="831" type="curve"/>
      <point x="390" y="826"/>
      <point x="374" y="824"/>
      <point x="356" y="824" type="curve" smooth="yes"/>
      <point x="321" y="824"/>
      <point x="296" y="835"/>
      <point x="280" y="847" type="curve" smooth="yes"/>
      <point x="270" y="854"/>
      <point x="262" y="862"/>
      <point x="256" y="871" type="curve"/>
      <point x="319" y="917" type="line"/>
      <point x="332" y="898"/>
      <point x="352" y="894"/>
      <point x="371" y="894" type="curve" smooth="yes"/>
      <point x="390" y="894"/>
      <point x="403" y="898"/>
      <point x="416" y="905" type="curve" smooth="yes"/>
      <point x="422" y="908"/>
      <point x="428" y="912"/>
      <point x="433" y="917" type="curve"/>
    </contour>
    <contour>
      <point x="313" y="471" type="line"/>
      <point x="337" y="584" type="line" smooth="yes"/>
      <point x="341" y="604"/>
      <point x="339" y="619"/>
      <point x="332" y="630" type="curve"/>
      <point x="328" y="635"/>
      <point x="321" y="638"/>
      <point x="312" y="638" type="curve" smooth="yes"/>
      <point x="293" y="638"/>
      <point x="281" y="624"/>
      <point x="274" y="611" type="curve" smooth="yes"/>
      <point x="270" y="603"/>
      <point x="267" y="594"/>
      <point x="265" y="584" type="curve" smooth="yes"/>
      <point x="171" y="142" type="line" smooth="yes"/>
      <point x="166" y="123"/>
      <point x="168" y="107"/>
      <point x="176" y="96" type="curve" smooth="yes"/>
      <point x="180" y="91"/>
      <point x="186" y="88"/>
      <point x="195" y="88" type="curve" smooth="yes"/>
      <point x="214" y="88"/>
      <point x="226" y="100"/>
      <point x="233" y="115" type="curve" smooth="yes"/>
      <point x="236" y="121"/>
      <point x="240" y="130"/>
      <point x="243" y="142" type="curve" smooth="yes"/>
      <point x="271" y="275" type="line"/>
      <point x="228" y="275" type="line"/>
      <point x="247" y="366" type="line"/>
      <point x="398" y="366" type="line"/>
      <point x="321" y="0" type="line"/>
      <point x="257" y="0" type="line"/>
      <point x="251" y="35" type="line"/>
      <point x="226" y="10"/>
      <point x="193" y="-8"/>
      <point x="158" y="-8" type="curve" smooth="yes"/>
      <point x="123" y="-8"/>
      <point x="101" y="1"/>
      <point x="86" y="17" type="curve" smooth="yes"/>
      <point x="71" y="32"/>
      <point x="63" y="51"/>
      <point x="60" y="71" type="curve"/>
      <point x="55" y="94"/>
      <point x="57" y="120"/>
      <point x="65" y="151" type="curve" smooth="yes"/>
      <point x="157" y="584" type="line" smooth="yes"/>
      <point x="164" y="613"/>
      <point x="175" y="639"/>
      <point x="191" y="663" type="curve"/>
      <point x="206" y="683"/>
      <point x="222" y="703"/>
      <point x="245" y="718" type="curve" smooth="yes"/>
      <point x="268" y="733"/>
      <point x="298" y="743"/>
      <point x="334" y="743" type="curve" smooth="yes"/>
      <point x="370" y="743"/>
      <point x="395" y="733"/>
      <point x="412" y="718" type="curve" smooth="yes"/>
      <point x="429" y="703"/>
      <point x="439" y="683"/>
      <point x="443" y="663" type="curve"/>
      <point x="450" y="641"/>
      <point x="450" y="615"/>
      <point x="445" y="584" type="curve" smooth="yes"/>
      <point x="421" y="471" type="line"/>
    </contour>
  </outline>
</glyph>
<glyph name="Itilde" format="1">
  <advance width="188"/>
  <unicode hex="0128"/>
  <outline>
    <contour>
      <point x="189" y="899" type="line"/>
      <point x="200" y="906"/>
      <point x="212" y="911"/>
      <point x="225" y="915" type="curve" smooth="yes"/>
      <point x="231" y="917"/>
      <point x="238" y="918"/>
      <point x="246" y="918" type="curve" smooth="yes"/>
      <point x="260" y="918"/>
      <point x="274" y="915"/>
      <point x="288" y="910" type="curve"/>
      <point x="302" y="903"/>
      <point x="316" y="900"/>
      <point x="330" y="899" type="curve"/>
      <point x="345" y="899"/>
      <point x="356" y="903"/>
      <point x="368" y="907" type="curve" smooth="yes"/>
      <point x="371" y="908"/>
      <point x="374" y="910"/>
      <point x="377" y="911" type="curve" smooth="yes"/>
      <point x="380" y="912"/>
      <point x="383" y="914"/>
      <point x="386" y="915" type="curve"/>
      <point x="370" y="841" type="line"/>
      <point x="359" y="833"/>
      <point x="346" y="828"/>
      <point x="334" y="825" type="curve" smooth="yes"/>
      <point x="327" y="823"/>
      <point x="320" y="822"/>
      <point x="313" y="822" type="curve" smooth="yes"/>
      <point x="298" y="822"/>
      <point x="284" y="825"/>
      <point x="272" y="831" type="curve"/>
      <point x="260" y="836"/>
      <point x="246" y="840"/>
      <point x="229" y="841" type="curve"/>
      <point x="214" y="841"/>
      <point x="202" y="837"/>
      <point x="191" y="833" type="curve"/>
      <point x="184" y="830"/>
      <point x="178" y="828"/>
      <point x="173" y="825" type="curve"/>
    </contour>
    <contour>
      <point x="196" y="735" type="line"/>
      <point x="304" y="735" type="line"/>
      <point x="148" y="0" type="line"/>
      <point x="40" y="0" type="line"/>
    </contour>
  </outline>
</glyph>
<glyph name="itilde" format="1">
  <advance width="181"/>
  <unicode hex="0129"/>
  <outline>
    <contour>
      <point x="146" y="711" type="line"/>
      <point x="157" y="718"/>
      <point x="169" y="723"/>
      <point x="182" y="727" type="curve" smooth="yes"/>
      <point x="188" y="729"/>
      <point x="195" y="730"/>
      <point x="203" y="730" type="curve" smooth="yes"/>
      <point x="217" y="730"/>
      <point x="231" y="727"/>
      <point x="245" y="722" type="curve"/>
      <point x="259" y="715"/>
      <point x="273" y="712"/>
      <point x="287" y="711" type="curve"/>
      <point x="302" y="711"/>
      <point x="313" y="715"/>
      <point x="325" y="719" type="curve" smooth="yes"/>
      <point x="328" y="720"/>
      <point x="331" y="722"/>
      <point x="334" y="723" type="curve" smooth="yes"/>
      <point x="337" y="724"/>
      <point x="340" y="726"/>
      <point x="343" y="727" type="curve"/>
      <point x="327" y="653" type="line"/>
      <point x="318" y="646"/>
      <point x="306" y="640"/>
      <point x="291" y="637" type="curve"/>
      <point x="284" y="635"/>
      <point x="277" y="634"/>
      <point x="270" y="634" type="curve" smooth="yes"/>
      <point x="255" y="634"/>
      <point x="241" y="637"/>
      <point x="229" y="643" type="curve"/>
      <point x="217" y="648"/>
      <point x="203" y="652"/>
      <point x="186" y="653" type="curve"/>
      <point x="171" y="653"/>
      <point x="159" y="649"/>
      <point x="148" y="645" type="curve" smooth="yes"/>
      <point x="145" y="644"/>
      <point x="142" y="642"/>
      <point x="139" y="641" type="curve" smooth="yes"/>
      <point x="136" y="640"/>
      <point x="133" y="638"/>
      <point x="130" y="637" type="curve"/>
    </contour>
    <contour>
      <point x="40" y="0" type="line"/>
      <point x="156" y="547" type="line"/>
      <point x="257" y="547" type="line"/>
      <point x="141" y="0" type="line"/>
    </contour>
  </outline>
</glyph>
<glyph name="iogonek" format="1">
  <advance width="181"/>
  <unicode hex="012F"/>
  <outline>
    <contour>
      <point x="275" y="634" type="line"/>
      <point x="174" y="634" type="line"/>
      <point x="196" y="735" type="line"/>
      <point x="297" y="735" type="line"/>
    </contour>
    <contour>
      <point x="125" y="0" type="line"/>
      <point x="104" y="-15"/>
      <point x="88" y="-31"/>
      <point x="76" y="-50" type="curve" smooth="yes"/>
      <point x="69" y="-61"/>
      <point x="64" y="-72"/>
      <point x="62" y="-83" type="curve" smooth="yes"/>
      <point x="59" y="-98"/>
      <point x="64" y="-106"/>
      <point x="72" y="-112" type="curve" smooth="yes"/>
      <point x="80" y="-118"/>
      <point x="92" y="-121"/>
      <point x="104" y="-121" type="curve" smooth="yes"/>
      <point x="121" y="-121"/>
      <point x="135" y="-117"/>
      <point x="148" y="-112" type="curve"/>
      <point x="125" y="-179" type="line"/>
      <point x="102" y="-186"/>
      <point x="90" y="-188"/>
      <point x="73" y="-188" type="curve" smooth="yes"/>
      <point x="8" y="-188"/>
      <point x="-21" y="-148"/>
      <point x="-10" y="-103" type="curve" smooth="yes"/>
      <point x="-3" y="-75"/>
      <point x="16" y="-50"/>
      <point x="37" y="-31" type="curve" smooth="yes"/>
      <point x="48" y="-20"/>
      <point x="62" y="-9"/>
      <point x="77" y="0" type="curve"/>
      <point x="40" y="0" type="line"/>
      <point x="156" y="547" type="line"/>
      <point x="257" y="547" type="line"/>
      <point x="141" y="0" type="line"/>
    </contour>
  </outline>
</glyph>
<glyph name="IJ" format="1">
  <advance width="395"/>
  <unicode hex="0132"/>
  <outline>
    <contour>
      <point x="196" y="735" type="line"/>
      <point x="304" y="735" type="line"/>
      <point x="148" y="0" type="line"/>
      <point x="40" y="0" type="line"/>
    </contour>
    <contour>
      <point x="215" y="99" type="line"/>
      <point x="236" y="96"/>
      <point x="253" y="102"/>
      <point x="267" y="117" type="curve"/>
      <point x="274" y="123"/>
      <point x="280" y="135"/>
      <point x="284" y="153" type="curve" smooth="yes"/>
      <point x="408" y="735" type="line"/>
      <point x="516" y="735" type="line"/>
      <point x="388" y="136" type="line" smooth="yes"/>
      <point x="380" y="96"/>
      <point x="362" y="59"/>
      <point x="331" y="32" type="curve" smooth="yes"/>
      <point x="300" y="5"/>
      <point x="256" y="-11"/>
      <point x="192" y="-7" type="curve"/>
    </contour>
  </outline>
</glyph>
<glyph name="ij" format="1">
  <advance width="359"/>
  <unicode hex="0133"/>
  <outline>
    <contour>
      <point x="196" y="735" type="line"/>
      <point x="297" y="735" type="line"/>
      <point x="275" y="634" type="line"/>
      <point x="174" y="634" type="line"/>
    </contour>
    <contour>
      <point x="374" y="735" type="line"/>
      <point x="475" y="735" type="line"/>
      <point x="453" y="634" type="line"/>
      <point x="352" y="634" type="line"/>
    </contour>
    <contour>
      <point x="40" y="0" type="line"/>
      <point x="156" y="547" type="line"/>
      <point x="257" y="547" type="line"/>
      <point x="141" y="0" type="line"/>
    </contour>
    <contour>
      <point x="435" y="547" type="line"/>
      <point x="316" y="-14" type="line" smooth="yes"/>
      <point x="309" y="-42"/>
      <point x="300" y="-86"/>
      <point x="279" y="-122" type="curve" smooth="yes"/>
      <point x="256" y="-159"/>
      <point x="220" y="-188"/>
      <point x="163" y="-188" type="curve" smooth="yes"/>
      <point x="147" y="-188"/>
      <point x="136" y="-187"/>
      <point x="129" y="-185" type="curve"/>
      <point x="127" y="-184"/>
      <point x="125" y="-184"/>
      <point x="124" y="-183" type="curve"/>
      <point x="123" y="-183"/>
      <point x="121" y="-183"/>
      <point x="120" y="-182" type="curve"/>
      <point x="140" y="-89" type="line"/>
      <point x="141" y="-90"/>
      <point x="143" y="-90"/>
      <point x="144" y="-90" type="curve" smooth="yes"/>
      <point x="145" y="-90"/>
      <point x="147" y="-90"/>
      <point x="148" y="-91" type="curve"/>
      <point x="155" y="-92"/>
      <point x="160" y="-93"/>
      <point x="167" y="-93" type="curve" smooth="yes"/>
      <point x="184" y="-93"/>
      <point x="195" y="-79"/>
      <point x="202" y="-62" type="curve" smooth="yes"/>
      <point x="205" y="-54"/>
      <point x="207" y="-45"/>
      <point x="210" y="-36" type="curve"/>
      <point x="211" y="-31"/>
      <point x="212" y="-27"/>
      <point x="213" y="-23" type="curve"/>
      <point x="213" y="-20"/>
      <point x="214" y="-16"/>
      <point x="215" y="-13" type="curve"/>
      <point x="334" y="547" type="line"/>
    </contour>
  </outline>
</glyph>
<glyph name="jcircumflex" format="1">
  <advance width="178"/>
  <unicode hex="0135"/>
  <outline>
    <contour>
      <point x="275" y="645" type="line"/>
      <point x="272" y="634" type="line"/>
      <point x="171" y="634" type="line"/>
      <point x="174" y="645" type="line"/>
      <point x="105" y="645" type="line"/>
      <point x="193" y="735" type="line"/>
      <point x="300" y="735" type="line"/>
      <point x="350" y="645" type="line"/>
    </contour>
    <contour>
      <point x="153" y="547" type="line"/>
      <point x="254" y="547" type="line"/>
      <point x="135" y="-14" type="line" smooth="yes"/>
      <point x="128" y="-42"/>
      <point x="119" y="-86"/>
      <point x="98" y="-122" type="curve" smooth="yes"/>
      <point x="75" y="-159"/>
      <point x="39" y="-188"/>
      <point x="-17" y="-188" type="curve" smooth="yes"/>
      <point x="-33" y="-188"/>
      <point x="-44" y="-187"/>
      <point x="-51" y="-185" type="curve"/>
      <point x="-53" y="-184"/>
      <point x="-55" y="-184"/>
      <point x="-56" y="-183" type="curve"/>
      <point x="-57" y="-183"/>
      <point x="-59" y="-183"/>
      <point x="-60" y="-182" type="curve"/>
      <point x="-40" y="-89" type="line"/>
      <point x="-39" y="-90"/>
      <point x="-37" y="-90"/>
      <point x="-36" y="-90" type="curve" smooth="yes"/>
      <point x="-35" y="-90"/>
      <point x="-33" y="-90"/>
      <point x="-32" y="-91" type="curve"/>
      <point x="-25" y="-92"/>
      <point x="-20" y="-93"/>
      <point x="-13" y="-93" type="curve" smooth="yes"/>
      <point x="3" y="-93"/>
      <point x="14" y="-79"/>
      <point x="21" y="-62" type="curve" smooth="yes"/>
      <point x="24" y="-54"/>
      <point x="26" y="-45"/>
      <point x="29" y="-36" type="curve"/>
      <point x="30" y="-31"/>
      <point x="31" y="-27"/>
      <point x="32" y="-23" type="curve"/>
      <point x="32" y="-20"/>
      <point x="33" y="-16"/>
      <point x="34" y="-13" type="curve"/>
    </contour>
  </outline>
</glyph>
<glyph name="Kcommaaccent" format="1">
  <advance width="375"/>
  <unicode hex="0136"/>
  <outline>
    <contour>
      <point x="304" y="735" type="line"/>
      <point x="249" y="478" type="line"/>
      <point x="253" y="478" type="line"/>
      <point x="261" y="490" type="line"/>
      <point x="403" y="735" type="line"/>
      <point x="508" y="735" type="line"/>
      <point x="357" y="493" type="line"/>
      <point x="365" y="0" type="line"/>
      <point x="260" y="0" type="line"/>
      <point x="253" y="320" type="line"/>
      <point x="253" y="335" type="line"/>
      <point x="250" y="335" type="line"/>
      <point x="241" y="320" type="line"/>
      <point x="203" y="260" type="line"/>
      <point x="148" y="0" type="line"/>
      <point x="40" y="0" type="line"/>
      <point x="196" y="735" type="line"/>
    </contour>
    <contour>
      <point x="188" y="-123" type="line"/>
      <point x="153" y="-188" type="line"/>
      <point x="102" y="-188" type="line"/>
      <point x="135" y="-123" type="line"/>
      <point x="104" y="-123" type="line"/>
      <point x="119" y="-54" type="line"/>
      <point x="203" y="-54" type="line"/>
    </contour>
  </outline>
</glyph>
<glyph name="kgreenlandic" format="1">
  <advance width="313"/>
  <unicode hex="0138"/>
  <outline>
    <contour>
      <point x="297" y="735" type="line"/>
      <point x="223" y="386" type="line"/>
      <point x="228" y="386" type="line"/>
      <point x="237" y="404" type="line"/>
      <point x="317" y="547" type="line"/>
      <point x="408" y="547" type="line"/>
      <point x="297" y="369" type="line"/>
      <point x="311" y="0" type="line"/>
      <point x="214" y="0" type="line"/>
      <point x="210" y="221" type="line"/>
      <point x="210" y="229" type="line"/>
      <point x="205" y="229" type="line"/>
      <point x="200" y="221" type="line"/>
      <point x="181" y="189" type="line"/>
      <point x="141" y="0" type="line"/>
      <point x="40" y="0" type="line"/>
      <point x="196" y="735" type="line"/>
    </contour>
  </outline>
</glyph>
<glyph name="lacute" format="1">
  <advance width="181"/>
  <unicode hex="013A"/>
  <outline>
    <contour>
      <point x="348" y="838" type="line"/>
      <point x="249" y="748" type="line"/>
      <point x="171" y="748" type="line"/>
      <point x="243" y="838" type="line"/>
    </contour>
    <contour>
      <point x="40" y="0" type="line"/>
      <point x="196" y="735" type="line"/>
      <point x="297" y="735" type="line"/>
      <point x="141" y="0" type="line"/>
    </contour>
  </outline>
</glyph>
<glyph name="Lcaron" format="1">
  <advance width="295"/>
  <unicode hex="013D"/>
  <outline>
    <contour>
      <point x="445" y="737" type="line"/>
      <point x="363" y="607" type="line"/>
      <point x="313" y="607" type="line"/>
      <point x="375" y="737" type="line"/>
      <point x="340" y="737" type="line"/>
      <point x="364" y="848" type="line"/>
      <point x="469" y="848" type="line"/>
    </contour>
    <contour>
      <point x="196" y="735" type="line"/>
      <point x="304" y="735" type="line"/>
      <point x="169" y="100" type="line"/>
      <point x="312" y="100" type="line"/>
      <point x="291" y="0" type="line"/>
      <point x="40" y="0" type="line"/>
    </contour>
  </outline>
</glyph>
<glyph name="Ldot" format="1">
  <advance width="295"/>
  <unicode hex="013F"/>
  <outline>
    <contour>
      <point x="196" y="735" type="line"/>
      <point x="304" y="735" type="line"/>
      <point x="169" y="100" type="line"/>
      <point x="312" y="100" type="line"/>
      <point x="291" y="0" type="line"/>
      <point x="40" y="0" type="line"/>
    </contour>
    <contour>
      <point x="279" y="440" type="line"/>
      <point x="384" y="440" type="line"/>
      <point x="360" y="329" type="line"/>
      <point x="255" y="329" type="line"/>
    </contour>
  </outline>
</glyph>
<glyph name="ldot" format="1">
  <advance width="286"/>
  <unicode hex="0140"/>
  <outline>
    <contour>
      <point x="40" y="0" type="line"/>
      <point x="196" y="735" type="line"/>
      <point x="297" y="735" type="line"/>
      <point x="141" y="0" type="line"/>
    </contour>
    <contour>
      <point x="271" y="428" type="line"/>
      <point x="376" y="428" type="line"/>
      <point x="353" y="317" type="line"/>
      <point x="248" y="317" type="line"/>
    </contour>
  </outline>
</glyph>
<glyph name="lslash" format="1">
  <advance width="229"/>
  <unicode hex="0142"/>
  <outline>
    <contour>
      <point x="64" y="0" type="line"/>
      <point x="130" y="312" type="line"/>
      <point x="73" y="274" type="line"/>
      <point x="96" y="382" type="line"/>
      <point x="153" y="420" type="line"/>
      <point x="220" y="735" type="line"/>
      <point x="321" y="735" type="line"/>
      <point x="271" y="499" type="line"/>
      <point x="328" y="537" type="line"/>
      <point x="305" y="429" type="line"/>
      <point x="248" y="391" type="line"/>
      <point x="165" y="0" type="line"/>
    </contour>
  </outline>
</glyph>
<glyph name="Ncommaaccent" format="1">
  <advance width="395"/>
  <unicode hex="0145"/>
  <outline>
    <contour>
      <point x="235" y="383" type="line"/>
      <point x="233" y="417" type="line"/>
      <point x="227" y="417" type="line"/>
      <point x="139" y="0" type="line"/>
      <point x="40" y="0" type="line"/>
      <point x="196" y="735" type="line"/>
      <point x="292" y="735" type="line"/>
      <point x="315" y="352" type="line"/>
      <point x="317" y="318" type="line"/>
      <point x="323" y="318" type="line"/>
      <point x="412" y="735" type="line"/>
      <point x="511" y="735" type="line"/>
      <point x="355" y="0" type="line"/>
      <point x="259" y="0" type="line"/>
    </contour>
    <contour>
      <point x="188" y="-123" type="line"/>
      <point x="153" y="-188" type="line"/>
      <point x="102" y="-188" type="line"/>
      <point x="135" y="-123" type="line"/>
      <point x="104" y="-123" type="line"/>
      <point x="119" y="-54" type="line"/>
      <point x="203" y="-54" type="line"/>
    </contour>
  </outline>
</glyph>
<glyph name="Ncaron" format="1">
  <advance width="395"/>
  <unicode hex="0147"/>
  <outline>
    <contour>
      <point x="320" y="825" type="line"/>
      <point x="270" y="915" type="line"/>
      <point x="362" y="915" type="line"/>
      <point x="385" y="880" type="line"/>
      <point x="423" y="915" type="line"/>
      <point x="515" y="915" type="line"/>
      <point x="427" y="825" type="line"/>
    </contour>
    <contour>
      <point x="235" y="383" type="line"/>
      <point x="233" y="417" type="line"/>
      <point x="227" y="417" type="line"/>
      <point x="139" y="0" type="line"/>
      <point x="40" y="0" type="line"/>
      <point x="196" y="735" type="line"/>
      <point x="292" y="735" type="line"/>
      <point x="315" y="352" type="line"/>
      <point x="317" y="318" type="line"/>
      <point x="323" y="318" type="line"/>
      <point x="412" y="735" type="line"/>
      <point x="511" y="735" type="line"/>
      <point x="355" y="0" type="line"/>
      <point x="259" y="0" type="line"/>
    </contour>
  </outline>
</glyph>
<glyph name="eng" format="1">
  <advance width="337"/>
  <unicode hex="014B"/>
  <outline>
    <contour>
      <point x="294" y="-19" type="line" smooth="yes"/>
      <point x="287" y="-50"/>
      <point x="272" y="-80"/>
      <point x="244" y="-100" type="curve" smooth="yes"/>
      <point x="216" y="-121"/>
      <point x="176" y="-135"/>
      <point x="116" y="-132" type="curve"/>
      <point x="134" y="-48" type="line"/>
      <point x="169" y="-56"/>
      <point x="189" y="-33"/>
      <point x="196" y="-6" type="curve" smooth="yes"/>
      <point x="290" y="433" type="line" smooth="yes"/>
      <point x="294" y="454"/>
      <point x="283" y="457"/>
      <point x="271" y="457" type="curve" smooth="yes"/>
      <point x="260" y="457"/>
      <point x="252" y="451"/>
      <point x="244" y="444" type="curve"/>
      <point x="242" y="442"/>
      <point x="240" y="440"/>
      <point x="238" y="438" type="curve" smooth="yes"/>
      <point x="236" y="436"/>
      <point x="234" y="434"/>
      <point x="232" y="431" type="curve"/>
      <point x="141" y="0" type="line"/>
      <point x="40" y="0" type="line"/>
      <point x="156" y="547" type="line"/>
      <point x="257" y="547" type="line"/>
      <point x="247" y="501" type="line"/>
      <point x="249" y="502"/>
      <point x="254" y="505"/>
      <point x="261" y="512" type="curve"/>
      <point x="268" y="517"/>
      <point x="276" y="523"/>
      <point x="285" y="530" type="curve" smooth="yes"/>
      <point x="302" y="543"/>
      <point x="323" y="555"/>
      <point x="340" y="555" type="curve" smooth="yes"/>
      <point x="367" y="555"/>
      <point x="383" y="539"/>
      <point x="391" y="519" type="curve" smooth="yes"/>
      <point x="398" y="499"/>
      <point x="398" y="475"/>
      <point x="395" y="452" type="curve"/>
    </contour>
  </outline>
</glyph>
<glyph name="Obreve" format="1">
  <advance width="354"/>
  <unicode hex="014E"/>
  <outline>
    <contour>
      <point x="473" y="871" type="line"/>
      <point x="452" y="854"/>
      <point x="429" y="840"/>
      <point x="400" y="831" type="curve"/>
      <point x="387" y="826"/>
      <point x="371" y="824"/>
      <point x="353" y="824" type="curve" smooth="yes"/>
      <point x="318" y="824"/>
      <point x="293" y="835"/>
      <point x="277" y="847" type="curve" smooth="yes"/>
      <point x="267" y="854"/>
      <point x="259" y="862"/>
      <point x="253" y="871" type="curve"/>
      <point x="316" y="917" type="line"/>
      <point x="329" y="898"/>
      <point x="349" y="894"/>
      <point x="368" y="894" type="curve" smooth="yes"/>
      <point x="387" y="894"/>
      <point x="400" y="898"/>
      <point x="413" y="905" type="curve" smooth="yes"/>
      <point x="419" y="908"/>
      <point x="425" y="912"/>
      <point x="430" y="917" type="curve"/>
    </contour>
    <contour>
      <point x="353" y="151" type="line"/>
      <point x="345" y="121"/>
      <point x="333" y="94"/>
      <point x="318" y="71" type="curve"/>
      <point x="303" y="51"/>
      <point x="286" y="32"/>
      <point x="263" y="17" type="curve" smooth="yes"/>
      <point x="239" y="0"/>
      <point x="210" y="-8"/>
      <point x="175" y="-8" type="curve" smooth="yes"/>
      <point x="140" y="-8"/>
      <point x="114" y="0"/>
      <point x="96" y="17" type="curve" smooth="yes"/>
      <point x="79" y="32"/>
      <point x="70" y="51"/>
      <point x="66" y="71" type="curve"/>
      <point x="59" y="94"/>
      <point x="59" y="120"/>
      <point x="65" y="151" type="curve" smooth="yes"/>
      <point x="157" y="584" type="line" smooth="yes"/>
      <point x="164" y="613"/>
      <point x="175" y="639"/>
      <point x="191" y="663" type="curve"/>
      <point x="206" y="683"/>
      <point x="222" y="703"/>
      <point x="245" y="718" type="curve" smooth="yes"/>
      <point x="268" y="733"/>
      <point x="298" y="743"/>
      <point x="334" y="743" type="curve" smooth="yes"/>
      <point x="370" y="743"/>
      <point x="395" y="733"/>
      <point x="412" y="718" type="curve" smooth="yes"/>
      <point x="429" y="703"/>
      <point x="439" y="683"/>
      <point x="443" y="663" type="curve"/>
      <point x="450" y="641"/>
      <point x="450" y="615"/>
      <point x="445" y="584" type="curve" smooth="yes"/>
    </contour>
    <contour>
      <point x="337" y="584" type="line" smooth="yes"/>
      <point x="341" y="604"/>
      <point x="339" y="619"/>
      <point x="332" y="630" type="curve"/>
      <point x="328" y="635"/>
      <point x="321" y="638"/>
      <point x="312" y="638" type="curve" smooth="yes"/>
      <point x="293" y="638"/>
      <point x="281" y="624"/>
      <point x="274" y="611" type="curve" smooth="yes"/>
      <point x="270" y="603"/>
      <point x="267" y="594"/>
      <point x="265" y="584" type="curve" smooth="yes"/>
      <point x="173" y="151" type="line" smooth="yes"/>
      <point x="168" y="132"/>
      <point x="170" y="116"/>
      <point x="178" y="105" type="curve" smooth="yes"/>
      <point x="182" y="100"/>
      <point x="188" y="97"/>
      <point x="197" y="97" type="curve" smooth="yes"/>
      <point x="216" y="97"/>
      <point x="228" y="109"/>
      <point x="235" y="124" type="curve" smooth="yes"/>
      <point x="238" y="130"/>
      <point x="242" y="139"/>
      <point x="245" y="151" type="curve" smooth="yes"/>
    </contour>
  </outline>
</glyph>
<glyph name="OE" format="1">
  <advance width="480"/>
  <unicode hex="0152"/>
  <outline>
    <contour>
      <point x="177" y="0" type="line" smooth="yes"/>
      <point x="141" y="0"/>
      <point x="115" y="9"/>
      <point x="98" y="24" type="curve" smooth="yes"/>
      <point x="66" y="51"/>
      <point x="53" y="96"/>
      <point x="65" y="151" type="curve" smooth="yes"/>
      <point x="157" y="584" type="line" smooth="yes"/>
      <point x="164" y="613"/>
      <point x="176" y="638"/>
      <point x="191" y="659" type="curve" smooth="yes"/>
      <point x="204" y="678"/>
      <point x="221" y="697"/>
      <point x="244" y="712" type="curve" smooth="yes"/>
      <point x="267" y="727"/>
      <point x="297" y="735"/>
      <point x="333" y="735" type="curve" smooth="yes"/>
      <point x="616" y="735" type="line"/>
      <point x="592" y="624" type="line"/>
      <point x="453" y="624" type="line"/>
      <point x="412" y="431" type="line"/>
      <point x="512" y="431" type="line"/>
      <point x="487" y="313" type="line"/>
      <point x="387" y="313" type="line"/>
      <point x="344" y="111" type="line"/>
      <point x="483" y="111" type="line"/>
      <point x="460" y="0" type="line"/>
    </contour>
    <contour>
      <point x="338" y="591" type="line"/>
      <point x="341" y="600"/>
      <point x="340" y="609"/>
      <point x="337" y="620" type="curve" smooth="yes"/>
      <point x="334" y="631"/>
      <point x="327" y="638"/>
      <point x="312" y="638" type="curve" smooth="yes"/>
      <point x="293" y="638"/>
      <point x="281" y="624"/>
      <point x="274" y="611" type="curve" smooth="yes"/>
      <point x="270" y="603"/>
      <point x="267" y="594"/>
      <point x="265" y="584" type="curve" smooth="yes"/>
      <point x="173" y="151" type="line" smooth="yes"/>
      <point x="168" y="132"/>
      <point x="170" y="116"/>
      <point x="178" y="105" type="curve" smooth="yes"/>
      <point x="182" y="100"/>
      <point x="188" y="97"/>
      <point x="197" y="97" type="curve" smooth="yes"/>
      <point x="216" y="97"/>
      <point x="228" y="109"/>
      <point x="235" y="124" type="curve" smooth="yes"/>
      <point x="238" y="130"/>
      <point x="242" y="139"/>
      <point x="245" y="151" type="curve" smooth="yes"/>
    </contour>
  </outline>
</glyph>
<glyph name="oe" format="1">
  <advance width="486"/>
  <unicode hex="0153"/>
  <outline>
    <contour>
      <point x="498" y="196" type="line"/>
      <point x="485" y="133" type="line"/>
      <point x="470" y="80"/>
      <point x="447" y="43"/>
      <point x="404" y="14" type="curve" smooth="yes"/>
      <point x="383" y="-1"/>
      <point x="357" y="-8"/>
      <point x="324" y="-8" type="curve" smooth="yes"/>
      <point x="287" y="-8"/>
      <point x="262" y="3"/>
      <point x="247" y="20" type="curve"/>
      <point x="224" y="4"/>
      <point x="195" y="-8"/>
      <point x="158" y="-8" type="curve" smooth="yes"/>
      <point x="126" y="-8"/>
      <point x="103" y="1"/>
      <point x="88" y="15" type="curve" smooth="yes"/>
      <point x="72" y="29"/>
      <point x="64" y="45"/>
      <point x="60" y="64" type="curve" smooth="yes"/>
      <point x="55" y="87"/>
      <point x="55" y="111"/>
      <point x="59" y="136" type="curve"/>
      <point x="118" y="411" type="line"/>
      <point x="133" y="464"/>
      <point x="155" y="502"/>
      <point x="198" y="533" type="curve" smooth="yes"/>
      <point x="217" y="548"/>
      <point x="244" y="555"/>
      <point x="277" y="555" type="curve" smooth="yes"/>
      <point x="316" y="555"/>
      <point x="340" y="543"/>
      <point x="355" y="526" type="curve"/>
      <point x="378" y="543"/>
      <point x="405" y="555"/>
      <point x="444" y="555" type="curve" smooth="yes"/>
      <point x="476" y="555"/>
      <point x="499" y="546"/>
      <point x="515" y="533" type="curve" smooth="yes"/>
      <point x="531" y="520"/>
      <point x="539" y="501"/>
      <point x="543" y="484" type="curve" smooth="yes"/>
      <point x="548" y="463"/>
      <point x="549" y="441"/>
      <point x="544" y="414" type="curve" smooth="yes"/>
      <point x="511" y="255" type="line"/>
      <point x="344" y="255" type="line"/>
      <point x="318" y="133" type="line" smooth="yes"/>
      <point x="317" y="129"/>
      <point x="315" y="116"/>
      <point x="318" y="104" type="curve" smooth="yes"/>
      <point x="321" y="92"/>
      <point x="328" y="81"/>
      <point x="344" y="81" type="curve" smooth="yes"/>
      <point x="363" y="81"/>
      <point x="374" y="93"/>
      <point x="381" y="108" type="curve"/>
      <point x="386" y="115"/>
      <point x="389" y="125"/>
      <point x="391" y="136" type="curve" smooth="yes"/>
      <point x="404" y="196" type="line"/>
    </contour>
    <contour>
      <point x="282" y="411" type="line" smooth="yes"/>
      <point x="287" y="432"/>
      <point x="286" y="448"/>
      <point x="279" y="459" type="curve"/>
      <point x="275" y="464"/>
      <point x="268" y="467"/>
      <point x="259" y="467" type="curve" smooth="yes"/>
      <point x="240" y="467"/>
      <point x="229" y="454"/>
      <point x="222" y="439" type="curve"/>
      <point x="217" y="431"/>
      <point x="214" y="422"/>
      <point x="213" y="411" type="curve"/>
      <point x="154" y="136" type="line" smooth="yes"/>
      <point x="149" y="117"/>
      <point x="150" y="101"/>
      <point x="157" y="89" type="curve"/>
      <point x="161" y="84"/>
      <point x="168" y="81"/>
      <point x="177" y="81" type="curve" smooth="yes"/>
      <point x="196" y="81"/>
      <point x="207" y="93"/>
      <point x="214" y="108" type="curve"/>
      <point x="219" y="116"/>
      <point x="222" y="125"/>
      <point x="223" y="136" type="curve"/>
    </contour>
    <contour>
      <point x="360" y="334" type="line"/>
      <point x="433" y="334" type="line"/>
      <point x="450" y="411" type="line" smooth="yes"/>
      <point x="454" y="432"/>
      <point x="454" y="447"/>
      <point x="446" y="459" type="curve"/>
      <point x="442" y="464"/>
      <point x="435" y="467"/>
      <point x="426" y="467" type="curve" smooth="yes"/>
      <point x="410" y="467"/>
      <point x="397" y="456"/>
      <point x="390" y="444" type="curve"/>
      <point x="386" y="438"/>
      <point x="383" y="432"/>
      <point x="382" y="427" type="curve"/>
      <point x="380" y="421"/>
      <point x="378" y="417"/>
      <point x="377" y="414" type="curve"/>
    </contour>
  </outline>
</glyph>
<glyph name="Rcommaaccent" format="1">
  <advance width="361"/>
  <unicode hex="0156"/>
  <outline>
    <contour>
      <point x="233" y="0" type="line"/>
      <point x="242" y="310" type="line"/>
      <point x="213" y="310" type="line"/>
      <point x="148" y="0" type="line"/>
      <point x="40" y="0" type="line"/>
      <point x="196" y="735" type="line"/>
      <point x="304" y="735" type="line" smooth="yes"/>
      <point x="433" y="735"/>
      <point x="472" y="663"/>
      <point x="443" y="523" type="curve" smooth="yes"/>
      <point x="427" y="450"/>
      <point x="394" y="384"/>
      <point x="347" y="356" type="curve"/>
      <point x="341" y="0" type="line"/>
    </contour>
    <contour>
      <point x="235" y="410" type="line"/>
      <point x="250" y="410"/>
      <point x="270" y="411"/>
      <point x="289" y="426" type="curve" smooth="yes"/>
      <point x="308" y="441"/>
      <point x="327" y="467"/>
      <point x="338" y="519" type="curve" smooth="yes"/>
      <point x="349" y="571"/>
      <point x="342" y="598"/>
      <point x="329" y="613" type="curve" smooth="yes"/>
      <point x="316" y="628"/>
      <point x="296" y="628"/>
      <point x="281" y="628" type="curve"/>
    </contour>
    <contour>
      <point x="188" y="-123" type="line"/>
      <point x="153" y="-188" type="line"/>
      <point x="102" y="-188" type="line"/>
      <point x="135" y="-123" type="line"/>
      <point x="104" y="-123" type="line"/>
      <point x="119" y="-54" type="line"/>
      <point x="203" y="-54" type="line"/>
    </contour>
  </outline>
</glyph>
<glyph name="Scedilla" format="1">
  <advance width="343"/>
  <unicode hex="015E"/>
  <outline>
    <contour>
      <point x="333" y="538" type="line"/>
      <point x="338" y="562"/>
      <point x="343" y="589"/>
      <point x="340" y="610" type="curve" smooth="yes"/>
      <point x="337" y="630"/>
      <point x="329" y="644"/>
      <point x="312" y="644" type="curve" smooth="yes"/>
      <point x="284" y="643"/>
      <point x="269" y="614"/>
      <point x="260" y="571" type="curve" smooth="yes"/>
      <point x="255" y="546"/>
      <point x="259" y="520"/>
      <point x="270" y="492" type="curve" smooth="yes"/>
      <point x="281" y="464"/>
      <point x="294" y="435"/>
      <point x="309" y="404" type="curve" smooth="yes"/>
      <point x="328" y="367"/>
      <point x="343" y="329"/>
      <point x="355" y="292" type="curve" smooth="yes"/>
      <point x="366" y="255"/>
      <point x="371" y="217"/>
      <point x="362" y="177" type="curve" smooth="yes"/>
      <point x="351" y="128"/>
      <point x="335" y="83"/>
      <point x="304" y="48" type="curve" smooth="yes"/>
      <point x="273" y="13"/>
      <point x="233" y="-8"/>
      <point x="173" y="-8" type="curve" smooth="yes"/>
      <point x="104" y="-8"/>
      <point x="70" y="18"/>
      <point x="57" y="58" type="curve" smooth="yes"/>
      <point x="42" y="98"/>
      <point x="50" y="150"/>
      <point x="61" y="206" type="curve"/>
      <point x="169" y="216" type="line"/>
      <point x="162" y="185"/>
      <point x="157" y="154"/>
      <point x="160" y="131" type="curve" smooth="yes"/>
      <point x="163" y="107"/>
      <point x="171" y="91"/>
      <point x="194" y="91" type="curve" smooth="yes"/>
      <point x="226" y="91"/>
      <point x="244" y="125"/>
      <point x="255" y="172" type="curve" smooth="yes"/>
      <point x="260" y="196"/>
      <point x="255" y="224"/>
      <point x="244" y="253" type="curve" smooth="yes"/>
      <point x="241" y="260"/>
      <point x="238" y="268"/>
      <point x="235" y="275" type="curve" smooth="yes"/>
      <point x="232" y="282"/>
      <point x="229" y="290"/>
      <point x="226" y="297" type="curve" smooth="yes"/>
      <point x="219" y="312"/>
      <point x="211" y="328"/>
      <point x="203" y="345" type="curve" smooth="yes"/>
      <point x="195" y="362"/>
      <point x="187" y="379"/>
      <point x="179" y="398" type="curve" smooth="yes"/>
      <point x="162" y="436"/>
      <point x="153" y="474"/>
      <point x="150" y="512" type="curve"/>
      <point x="147" y="531"/>
      <point x="150" y="551"/>
      <point x="154" y="571" type="curve" smooth="yes"/>
      <point x="162" y="611"/>
      <point x="180" y="654"/>
      <point x="211" y="687" type="curve" smooth="yes"/>
      <point x="240" y="719"/>
      <point x="280" y="742"/>
      <point x="331" y="743" type="curve" smooth="yes"/>
      <point x="398" y="744"/>
      <point x="429" y="717"/>
      <point x="442" y="678" type="curve" smooth="yes"/>
      <point x="454" y="638"/>
      <point x="450" y="589"/>
      <point x="441" y="548" type="curve"/>
    </contour>
    <contour>
      <point x="188" y="-123" type="line"/>
      <point x="153" y="-188" type="line"/>
      <point x="102" y="-188" type="line"/>
      <point x="135" y="-123" type="line"/>
      <point x="104" y="-123" type="line"/>
      <point x="119" y="-54" type="line"/>
      <point x="203" y="-54" type="line"/>
    </contour>
  </outline>
</glyph>
<glyph name="scaron" format="1">
  <advance width="308"/>
  <unicode hex="0161"/>
  <outline>
    <contour>
      <point x="236" y="637" type="line"/>
      <point x="186" y="727" type="line"/>
      <point x="278" y="727" type="line"/>
      <point x="301" y="692" type="line"/>
      <point x="339" y="727" type="line"/>
      <point x="431" y="727" type="line"/>
      <point x="343" y="637" type="line"/>
    </contour>
    <contour>
      <point x="279" y="407" type="line"/>
      <point x="282" y="420"/>
      <point x="285" y="436"/>
      <point x="284" y="449" type="curve"/>
      <point x="281" y="461"/>
      <point x="276" y="471"/>
      <point x="260" y="471" type="curve" smooth="yes"/>
      <point x="247" y="471"/>
      <point x="237" y="461"/>
      <point x="230" y="449" type="curve"/>
      <point x="222" y="437"/>
      <point x="218" y="420"/>
      <point x="215" y="407" type="curve" smooth="yes"/>
      <point x="211" y="390"/>
      <point x="217" y="372"/>
      <point x="226" y="356" type="curve" smooth="yes"/>
      <point x="235" y="340"/>
      <point x="247" y="324"/>
      <point x="260" y="309" type="curve" smooth="yes"/>
      <point x="277" y="288"/>
      <point x="297" y="264"/>
      <point x="308" y="237" type="curve" smooth="yes"/>
      <point x="319" y="209"/>
      <point x="325" y="178"/>
      <point x="318" y="142" type="curve" smooth="yes"/>
      <point x="310" y="107"/>
      <point x="295" y="70"/>
      <point x="268" y="42" type="curve" smooth="yes"/>
      <point x="241" y="13"/>
      <point x="205" y="-8"/>
      <point x="157" y="-8" type="curve" smooth="yes"/>
      <point x="96" y="-8"/>
      <point x="66" y="19"/>
      <point x="53" y="54" type="curve" smooth="yes"/>
      <point x="40" y="89"/>
      <point x="44" y="130"/>
      <point x="51" y="159" type="curve"/>
      <point x="145" y="159" type="line"/>
      <point x="142" y="144"/>
      <point x="139" y="123"/>
      <point x="142" y="107" type="curve" smooth="yes"/>
      <point x="146" y="90"/>
      <point x="154" y="76"/>
      <point x="175" y="76" type="curve" smooth="yes"/>
      <point x="204" y="76"/>
      <point x="217" y="110"/>
      <point x="224" y="142" type="curve" smooth="yes"/>
      <point x="231" y="175"/>
      <point x="206" y="208"/>
      <point x="181" y="239" type="curve" smooth="yes"/>
      <point x="162" y="262"/>
      <point x="144" y="283"/>
      <point x="131" y="310" type="curve" smooth="yes"/>
      <point x="119" y="337"/>
      <point x="113" y="367"/>
      <point x="121" y="407" type="curve" smooth="yes"/>
      <point x="128" y="439"/>
      <point x="142" y="476"/>
      <point x="167" y="505" type="curve" smooth="yes"/>
      <point x="192" y="533"/>
      <point x="227" y="554"/>
      <point x="275" y="555" type="curve" smooth="yes"/>
      <point x="335" y="556"/>
      <point x="363" y="534"/>
      <point x="374" y="505" type="curve" smooth="yes"/>
      <point x="385" y="476"/>
      <point x="380" y="438"/>
      <point x="373" y="407" type="curve"/>
    </contour>
  </outline>
</glyph>
<glyph name="tbar" format="1">
  <advance width="245"/>
  <unicode hex="0167"/>
  <outline>
    <contour>
      <point x="258" y="456" type="line"/>
      <point x="201" y="184" type="line" smooth="yes"/>
      <point x="197" y="167"/>
      <point x="192" y="146"/>
      <point x="192" y="127" type="curve"/>
      <point x="193" y="108"/>
      <point x="197" y="94"/>
      <point x="213" y="94" type="curve" smooth="yes"/>
      <point x="221" y="94"/>
      <point x="232" y="95"/>
      <point x="239" y="96" type="curve"/>
      <point x="241" y="97"/>
      <point x="243" y="97"/>
      <point x="245" y="97" type="curve" smooth="yes"/>
      <point x="247" y="97"/>
      <point x="249" y="97"/>
      <point x="251" y="98" type="curve"/>
      <point x="230" y="-1" type="line"/>
      <point x="227" y="-2"/>
      <point x="225" y="-2"/>
      <point x="223" y="-3" type="curve"/>
      <point x="220" y="-4"/>
      <point x="217" y="-4"/>
      <point x="214" y="-5" type="curve"/>
      <point x="204" y="-7"/>
      <point x="191" y="-8"/>
      <point x="175" y="-8" type="curve" smooth="yes"/>
      <point x="115" y="-8"/>
      <point x="95" y="21"/>
      <point x="88" y="60" type="curve" smooth="yes"/>
      <point x="81" y="99"/>
      <point x="91" y="144"/>
      <point x="98" y="176" type="curve" smooth="yes"/>
      <point x="157" y="456" type="line"/>
      <point x="106" y="456" type="line"/>
      <point x="126" y="547" type="line"/>
      <point x="177" y="547" type="line"/>
      <point x="197" y="642" type="line"/>
      <point x="163" y="642" type="line"/>
      <point x="180" y="721" type="line"/>
      <point x="374" y="721" type="line"/>
      <point x="357" y="642" type="line"/>
      <point x="298" y="642" type="line"/>
      <point x="278" y="547" type="line"/>
      <point x="347" y="547" type="line"/>
      <point x="327" y="456" type="line"/>
    </contour>
  </outline>
</glyph>
<glyph name="Utilde" format="1">
  <advance width="366"/>
  <unicode hex="0168"/>
  <outline>
    <contour>
      <point x="278" y="899" type="line"/>
      <point x="289" y="906"/>
      <point x="301" y="911"/>
      <point x="314" y="915" type="curve" smooth="yes"/>
      <point x="320" y="917"/>
      <point x="327" y="918"/>
      <point x="335" y="918" type="curve" smooth="yes"/>
      <point x="349" y="918"/>
      <point x="363" y="915"/>
      <point x="377" y="910" type="curve"/>
      <point x="391" y="903"/>
      <point x="405" y="900"/>
      <point x="419" y="899" type="curve"/>
      <point x="434" y="899"/>
      <point x="445" y="903"/>
      <point x="457" y="907" type="curve" smooth="yes"/>
      <point x="460" y="908"/>
      <point x="463" y="910"/>
      <point x="466" y="911" type="curve" smooth="yes"/>
      <point x="469" y="912"/>
      <point x="472" y="914"/>
      <point x="475" y="915" type="curve"/>
      <point x="459" y="841" type="line"/>
      <point x="448" y="833"/>
      <point x="435" y="828"/>
      <point x="423" y="825" type="curve" smooth="yes"/>
      <point x="416" y="823"/>
      <point x="409" y="822"/>
      <point x="402" y="822" type="curve" smooth="yes"/>
      <point x="387" y="822"/>
      <point x="373" y="825"/>
      <point x="361" y="831" type="curve"/>
      <point x="349" y="836"/>
      <point x="335" y="840"/>
      <point x="318" y="841" type="curve"/>
      <point x="303" y="841"/>
      <point x="291" y="837"/>
      <point x="280" y="833" type="curve"/>
      <point x="273" y="830"/>
      <point x="267" y="828"/>
      <point x="262" y="825" type="curve"/>
    </contour>
    <contour>
      <point x="483" y="735" type="line"/>
      <point x="359" y="151" type="line"/>
      <point x="351" y="121"/>
      <point x="339" y="94"/>
      <point x="324" y="71" type="curve"/>
      <point x="309" y="51"/>
      <point x="292" y="32"/>
      <point x="269" y="17" type="curve" smooth="yes"/>
      <point x="245" y="0"/>
      <point x="216" y="-8"/>
      <point x="181" y="-8" type="curve" smooth="yes"/>
      <point x="146" y="-8"/>
      <point x="120" y="0"/>
      <point x="102" y="17" type="curve" smooth="yes"/>
      <point x="85" y="32"/>
      <point x="76" y="51"/>
      <point x="72" y="71" type="curve"/>
      <point x="65" y="94"/>
      <point x="65" y="120"/>
      <point x="71" y="151" type="curve" smooth="yes"/>
      <point x="195" y="735" type="line"/>
      <point x="303" y="735" type="line"/>
      <point x="179" y="151" type="line" smooth="yes"/>
      <point x="174" y="132"/>
      <point x="176" y="116"/>
      <point x="184" y="105" type="curve" smooth="yes"/>
      <point x="188" y="100"/>
      <point x="194" y="97"/>
      <point x="203" y="97" type="curve" smooth="yes"/>
      <point x="222" y="97"/>
      <point x="234" y="109"/>
      <point x="241" y="124" type="curve" smooth="yes"/>
      <point x="244" y="130"/>
      <point x="248" y="139"/>
      <point x="251" y="151" type="curve" smooth="yes"/>
      <point x="375" y="735" type="line"/>
    </contour>
  </outline>
</glyph>
<glyph name="utilde" format="1">
  <advance width="337"/>
  <unicode hex="0169"/>
  <outline>
    <contour>
      <point x="224" y="711" type="line"/>
      <point x="235" y="718"/>
      <point x="247" y="723"/>
      <point x="260" y="727" type="curve" smooth="yes"/>
      <point x="266" y="729"/>
      <point x="273" y="730"/>
      <point x="281" y="730" type="curve" smooth="yes"/>
      <point x="295" y="730"/>
      <point x="309" y="727"/>
      <point x="323" y="722" type="curve"/>
      <point x="337" y="715"/>
      <point x="351" y="712"/>
      <point x="365" y="711" type="curve"/>
      <point x="380" y="711"/>
      <point x="391" y="715"/>
      <point x="403" y="719" type="curve" smooth="yes"/>
      <point x="406" y="720"/>
      <point x="409" y="722"/>
      <point x="412" y="723" type="curve" smooth="yes"/>
      <point x="415" y="724"/>
      <point x="418" y="726"/>
      <point x="421" y="727" type="curve"/>
      <point x="405" y="653" type="line"/>
      <point x="396" y="646"/>
      <point x="384" y="640"/>
      <point x="369" y="637" type="curve"/>
      <point x="362" y="635"/>
      <point x="355" y="634"/>
      <point x="348" y="634" type="curve" smooth="yes"/>
      <point x="333" y="634"/>
      <point x="319" y="637"/>
      <point x="307" y="643" type="curve"/>
      <point x="295" y="648"/>
      <point x="281" y="652"/>
      <point x="264" y="653" type="curve"/>
      <point x="249" y="653"/>
      <point x="237" y="649"/>
      <point x="226" y="645" type="curve" smooth="yes"/>
      <point x="223" y="644"/>
      <point x="220" y="642"/>
      <point x="217" y="641" type="curve" smooth="yes"/>
      <point x="214" y="640"/>
      <point x="211" y="638"/>
      <point x="208" y="637" type="curve"/>
    </contour>
    <contour>
      <point x="312" y="547" type="line"/>
      <point x="413" y="547" type="line"/>
      <point x="297" y="0" type="line"/>
      <point x="196" y="0" type="line"/>
      <point x="205" y="46" type="line"/>
      <point x="203" y="45"/>
      <point x="199" y="42"/>
      <point x="192" y="36" type="curve" smooth="yes"/>
      <point x="177" y="24"/>
      <point x="161" y="11"/>
      <point x="141" y="0" type="curve"/>
      <point x="129" y="-5"/>
      <point x="119" y="-8"/>
      <point x="112" y="-8" type="curve" smooth="yes"/>
      <point x="85" y="-8"/>
      <point x="69" y="8"/>
      <point x="62" y="29" type="curve"/>
      <point x="54" y="49"/>
      <point x="54" y="76"/>
      <point x="59" y="99" type="curve" smooth="yes"/>
      <point x="154" y="547" type="line"/>
      <point x="255" y="547" type="line"/>
      <point x="163" y="114" type="line" smooth="yes"/>
      <point x="158" y="93"/>
      <point x="170" y="90"/>
      <point x="182" y="90" type="curve" smooth="yes"/>
      <point x="193" y="90"/>
      <point x="200" y="96"/>
      <point x="208" y="103" type="curve"/>
      <point x="212" y="106"/>
      <point x="216" y="111"/>
      <point x="220" y="116" type="curve"/>
    </contour>
  </outline>
</glyph>
<glyph name="uring" format="1">
  <advance width="337"/>
  <unicode hex="016F"/>
  <outline>
    <contour>
      <point x="242" y="694" type="curve" smooth="yes"/>
      <point x="251" y="735"/>
      <point x="291" y="764"/>
      <point x="332" y="764" type="curve" smooth="yes"/>
      <point x="373" y="764"/>
      <point x="400" y="735"/>
      <point x="391" y="694" type="curve" smooth="yes"/>
      <point x="382" y="653"/>
      <point x="343" y="624"/>
      <point x="302" y="624" type="curve" smooth="yes"/>
      <point x="261" y="624"/>
      <point x="233" y="653"/>
    </contour>
    <contour>
      <point x="280" y="694" type="curve" smooth="yes"/>
      <point x="276" y="675"/>
      <point x="291" y="659"/>
      <point x="310" y="659" type="curve" smooth="yes"/>
      <point x="329" y="659"/>
      <point x="350" y="675"/>
      <point x="354" y="694" type="curve" smooth="yes"/>
      <point x="358" y="713"/>
      <point x="343" y="729"/>
      <point x="324" y="729" type="curve" smooth="yes"/>
      <point x="305" y="729"/>
      <point x="284" y="713"/>
    </contour>
    <contour>
      <point x="312" y="547" type="line"/>
      <point x="413" y="547" type="line"/>
      <point x="297" y="0" type="line"/>
      <point x="196" y="0" type="line"/>
      <point x="205" y="46" type="line"/>
      <point x="203" y="45"/>
      <point x="199" y="42"/>
      <point x="192" y="36" type="curve" smooth="yes"/>
      <point x="177" y="24"/>
      <point x="161" y="11"/>
      <point x="141" y="0" type="curve"/>
      <point x="129" y="-5"/>
      <point x="119" y="-8"/>
      <point x="112" y="-8" type="curve" smooth="yes"/>
      <point x="85" y="-8"/>
      <point x="69" y="8"/>
      <point x="62" y="29" type="curve"/>
      <point x="54" y="49"/>
      <point x="54" y="76"/>
      <point x="59" y="99" type="curve" smooth="yes"/>
      <point x="154" y="547" type="line"/>
      <point x="255" y="547" type="line"/>
      <point x="163" y="114" type="line" smooth="yes"/>
      <point x="158" y="93"/>
      <point x="170" y="90"/>
      <point x="182" y="90" type="curve" smooth="yes"/>
      <point x="193" y="90"/>
      <point x="200" y="96"/>
      <point x="208" y="103" type="curve"/>
      <point x="212" y="106"/>
      <point x="216" y="111"/>
      <point x="220" y="116" type="curve"/>
    </contour>
  </outline>
</glyph>
<glyph name="uogonek" format="1">
  <advance width="337"/>
  <unicode hex="0173"/>
  <outline>
    <contour>
      <point x="251" y="0" type="line"/>
      <point x="230" y="-15"/>
      <point x="214" y="-31"/>
      <point x="202" y="-50" type="curve" smooth="yes"/>
      <point x="195" y="-61"/>
      <point x="190" y="-72"/>
      <point x="188" y="-83" type="curve" smooth="yes"/>
      <point x="185" y="-98"/>
      <point x="190" y="-106"/>
      <point x="198" y="-112" type="curve" smooth="yes"/>
      <point x="206" y="-118"/>
      <point x="218" y="-121"/>
      <point x="230" y="-121" type="curve" smooth="yes"/>
      <point x="247" y="-121"/>
      <point x="261" y="-117"/>
      <point x="274" y="-112" type="curve"/>
      <point x="251" y="-179" type="line"/>
      <point x="228" y="-186"/>
      <point x="216" y="-188"/>
      <point x="199" y="-188" type="curve" smooth="yes"/>
      <point x="134" y="-188"/>
      <point x="104" y="-148"/>
      <point x="115" y="-103" type="curve" smooth="yes"/>
      <point x="122" y="-75"/>
      <point x="142" y="-50"/>
      <point x="163" y="-31" type="curve" smooth="yes"/>
      <point x="174" y="-20"/>
      <point x="188" y="-9"/>
      <point x="203" y="0" type="curve"/>
      <point x="196" y="0" type="line"/>
      <point x="205" y="46" type="line"/>
      <point x="203" y="45"/>
      <point x="199" y="42"/>
      <point x="192" y="36" type="curve" smooth="yes"/>
      <point x="177" y="24"/>
      <point x="161" y="11"/>
      <point x="141" y="0" type="curve"/>
      <point x="129" y="-5"/>
      <point x="119" y="-8"/>
      <point x="112" y="-8" type="curve" smooth="yes"/>
      <point x="85" y="-8"/>
      <point x="69" y="8"/>
      <point x="62" y="29" type="curve"/>
      <point x="54" y="49"/>
      <point x="54" y="76"/>
      <point x="59" y="99" type="curve" smooth="yes"/>
      <point x="154" y="547" type="line"/>
      <point x="255" y="547" type="line"/>
      <point x="163" y="114" type="line" smooth="yes"/>
      <point x="158" y="93"/>
      <point x="170" y="90"/>
      <point x="182" y="90" type="curve" smooth="yes"/>
      <point x="193" y="90"/>
      <point x="200" y="96"/>
      <point x="208" y="103" type="curve"/>
      <point x="212" y="106"/>
      <point x="216" y="111"/>
      <point x="220" y="116" type="curve"/>
      <point x="312" y="547" type="line"/>
      <point x="413" y="547" type="line"/>
      <point x="297" y="0" type="line"/>
    </contour>
  </outline>
</glyph>
<glyph name="Zacute" format="1">
  <advance width="306"/>
  <unicode hex="0179"/>
  <outline>
    <contour>
      <point x="427" y="915" type="line"/>
      <point x="329" y="825" type="line"/>
      <point x="251" y="825" type="line"/>
      <point x="322" y="915" type="line"/>
    </contour>
    <contour>
      <point x="34" y="116" type="line"/>
      <point x="312" y="628" type="line"/>
      <point x="167" y="628" type="line"/>
      <point x="190" y="735" type="line"/>
      <point x="452" y="735" type="line"/>
      <point x="429" y="628" type="line"/>
      <point x="146" y="107" type="line"/>
      <point x="318" y="107" type="line"/>
      <point x="296" y="0" type="line"/>
      <point x="10" y="0" type="line"/>
    </contour>
  </outline>
</glyph>
<glyph name="zacute" format="1">
  <advance width="260"/>
  <unicode hex="017A"/>
  <outline>
    <contour>
      <point x="364" y="727" type="line"/>
      <point x="266" y="637" type="line"/>
      <point x="188" y="637" type="line"/>
      <point x="259" y="727" type="line"/>
    </contour>
    <contour>
      <point x="23" y="82" type="line"/>
      <point x="241" y="455" type="line"/>
      <point x="124" y="455" type="line"/>
      <point x="144" y="547" type="line"/>
      <point x="368" y="547" type="line"/>
      <point x="350" y="465" type="line"/>
      <point x="132" y="92" type="line"/>
      <point x="271" y="92" type="line"/>
      <point x="252" y="0" type="line"/>
      <point x="6" y="0" type="line"/>
    </contour>
  </outline>
</glyph>
<glyph name="Zdotaccent" format="1">
  <advance width="306"/>
  <unicode hex="017B"/>
  <outline>
    <contour>
      <point x="300" y="923" type="line"/>
      <point x="401" y="923" type="line"/>
      <point x="379" y="822" type="line"/>
      <point x="278" y="822" type="line"/>
    </contour>
    <contour>
      <point x="34" y="116" type="line"/>
      <point x="312" y="628" type="line"/>
      <point x="167" y="628" type="line"/>
      <point x="190" y="735" type="line"/>
      <point x="452" y="735" type="line"/>
      <point x="429" y="628" type="line"/>
      <point x="146" y="107" type="line"/>
      <point x="318" y="107" type="line"/>
      <point x="296" y="0" type="line"/>
      <point x="10" y="0" type="line"/>
    </contour>
  </outline>
</glyph>
<glyph name="zdotaccent" format="1">
  <advance width="260"/>
  <unicode hex="017C"/>
  <outline>
    <contour>
      <point x="237" y="735" type="line"/>
      <point x="338" y="735" type="line"/>
      <point x="316" y="634" type="line"/>
      <point x="215" y="634" type="line"/>
    </contour>
    <contour>
      <point x="23" y="82" type="line"/>
      <point x="241" y="455" type="line"/>
      <point x="124" y="455" type="line"/>
      <point x="144" y="547" type="line"/>
      <point x="368" y="547" type="line"/>
      <point x="350" y="465" type="line"/>
      <point x="132" y="92" type="line"/>
      <point x="271" y="92" type="line"/>
      <point x="252" y="0" type="line"/>
      <point x="6" y="0" type="line"/>
    </contour>
  </outline>
</glyph>
<glyph name="Zcaron" format="1">
  <advance width="306"/>
  <unicode hex="017D"/>
  <outline>
    <contour>
      <point x="282" y="800" type="line"/>
      <point x="232" y="890" type="line"/>
      <point x="324" y="890" type="line"/>
      <point x="346" y="855" type="line"/>
      <point x="385" y="890" type="line"/>
      <point x="477" y="890" type="line"/>
      <point x="389" y="800" type="line"/>
    </contour>
    <contour>
      <point x="34" y="116" type="line"/>
      <point x="312" y="628" type="line"/>
      <point x="167" y="628" type="line"/>
      <point x="190" y="735" type="line"/>
      <point x="452" y="735" type="line"/>
      <point x="429" y="628" type="line"/>
      <point x="146" y="107" type="line"/>
      <point x="318" y="107" type="line"/>
      <point x="296" y="0" type="line"/>
      <point x="10" y="0" type="line"/>
    </contour>
  </outline>
</glyph>
<glyph name="zcaron" format="1">
  <advance width="260"/>
  <unicode hex="017E"/>
  <outline>
    <contour>
      <point x="216" y="637" type="line"/>
      <point x="166" y="727" type="line"/>
      <point x="258" y="727" type="line"/>
      <point x="281" y="692" type="line"/>
      <point x="319" y="727" type="line"/>
      <point x="411" y="727" type="line"/>
      <point x="323" y="637" type="line"/>
    </contour>
    <contour>
      <point x="23" y="82" type="line"/>
      <point x="241" y="455" type="line"/>
      <point x="124" y="455" type="line"/>
      <point x="144" y="547" type="line"/>
      <point x="368" y="547" type="line"/>
      <point x="350" y="465" type="line"/>
      <point x="132" y="92" type="line"/>
      <point x="271" y="92" type="line"/>
      <point x="252" y="0" type="line"/>
      <point x="6" y="0" type="line"/>
    </contour>
  </outline>
</glyph>
<glyph name="breve" format="1">
  <advance width="500"/>
  <unicode hex="02D8"/>
  <outline>
    <contour>
      <point x="505" y="683" type="line"/>
      <point x="484" y="666"/>
      <point x="461" y="652"/>
      <point x="432" y="643" type="curve"/>
      <point x="419" y="638"/>
      <point x="403" y="636"/>
      <point x="385" y="636" type="curve" smooth="yes"/>
      <point x="350" y="636"/>
      <point x="325" y="647"/>
      <point x="309" y="659" type="curve" smooth="yes"/>
      <point x="299" y="666"/>
      <point x="291" y="674"/>
      <point x="285" y="683" type="curve"/>
      <point x="348" y="729" type="line"/>
      <point x="361" y="710"/>
      <point x="381" y="706"/>
      <point x="400" y="706" type="curve" smooth="yes"/>
      <point x="419" y="706"/>
      <point x="432" y="710"/>
      <point x="445" y="717" type="curve" smooth="yes"/>
      <point x="451" y="720"/>
      <point x="457" y="724"/>
      <point x="462" y="729" type="curve"/>
    </contour>
  </outline>
</glyph>
<glyph name="dotaccent" format="1">
  <advance width="499"/>
  <unicode hex="02D9"/>
  <outline>
    <contour>
      <point x="355" y="735" type="line"/>
      <point x="456" y="735" type="line"/>
      <point x="434" y="634" type="line"/>
      <point x="333" y="634" type="line"/>
    </contour>
  </outline>
</glyph>
<glyph name="ring" format="1">
  <advance width="499"/>
  <unicode hex="02DA"/>
  <outline>
    <contour>
      <point x="322" y="694" type="curve" smooth="yes"/>
      <point x="331" y="735"/>
      <point x="371" y="764"/>
      <point x="412" y="764" type="curve" smooth="yes"/>
      <point x="453" y="764"/>
      <point x="480" y="735"/>
      <point x="471" y="694" type="curve" smooth="yes"/>
      <point x="462" y="653"/>
      <point x="423" y="624"/>
      <point x="382" y="624" type="curve" smooth="yes"/>
      <point x="341" y="624"/>
      <point x="313" y="653"/>
    </contour>
    <contour>
      <point x="360" y="694" type="curve" smooth="yes"/>
      <point x="356" y="675"/>
      <point x="371" y="659"/>
      <point x="390" y="659" type="curve" smooth="yes"/>
      <point x="409" y="659"/>
      <point x="430" y="675"/>
      <point x="434" y="694" type="curve" smooth="yes"/>
      <point x="438" y="713"/>
      <point x="423" y="729"/>
      <point x="404" y="729" type="curve" smooth="yes"/>
      <point x="385" y="729"/>
      <point x="364" y="713"/>
    </contour>
  </outline>
</glyph>
<glyph name="ogonek" format="1">
  <advance width="500"/>
  <unicode hex="02DB"/>
  <outline>
    <contour>
      <point x="284" y="0" type="line"/>
      <point x="263" y="-15"/>
      <point x="247" y="-31"/>
      <point x="235" y="-50" type="curve" smooth="yes"/>
      <point x="228" y="-61"/>
      <point x="223" y="-72"/>
      <point x="221" y="-83" type="curve" smooth="yes"/>
      <point x="218" y="-98"/>
      <point x="223" y="-106"/>
      <point x="231" y="-112" type="curve" smooth="yes"/>
      <point x="239" y="-118"/>
      <point x="251" y="-121"/>
      <point x="263" y="-121" type="curve" smooth="yes"/>
      <point x="280" y="-121"/>
      <point x="294" y="-117"/>
      <point x="307" y="-112" type="curve"/>
      <point x="284" y="-179" type="line"/>
      <point x="261" y="-186"/>
      <point x="249" y="-188"/>
      <point x="232" y="-188" type="curve" smooth="yes"/>
      <point x="167" y="-188"/>
      <point x="137" y="-148"/>
      <point x="148" y="-103" type="curve" smooth="yes"/>
      <point x="155" y="-75"/>
      <point x="175" y="-50"/>
      <point x="196" y="-31" type="curve" smooth="yes"/>
      <point x="207" y="-20"/>
      <point x="221" y="-9"/>
      <point x="236" y="0" type="curve"/>
    </contour>
  </outline>
</glyph>
<glyph name="hungarumlaut" format="1">
  <advance width="500"/>
  <unicode hex="02DD"/>
  <outline>
    <contour>
      <point x="416" y="727" type="line"/>
      <point x="318" y="637" type="line"/>
      <point x="240" y="637" type="line"/>
      <point x="311" y="727" type="line"/>
    </contour>
    <contour>
      <point x="564" y="727" type="line"/>
      <point x="466" y="637" type="line"/>
      <point x="388" y="637" type="line"/>
      <point x="459" y="727" type="line"/>
    </contour>
  </outline>
</glyph>
<glyph name="endash" format="1">
  <advance width="394"/>
  <unicode hex="2013"/>
  <outline>
    <contour>
      <point x="123" y="412" type="line"/>
      <point x="445" y="412" type="line"/>
      <point x="425" y="317" type="line"/>
      <point x="103" y="317" type="line"/>
    </contour>
  </outline>
</glyph>
<glyph name="quoteright" format="1">
  <advance width="151"/>
  <unicode hex="2019"/>
  <outline>
    <contour>
      <point x="259" y="624" type="line"/>
      <point x="177" y="494" type="line"/>
      <point x="127" y="494" type="line"/>
      <point x="189" y="624" type="line"/>
      <point x="154" y="624" type="line"/>
      <point x="178" y="735" type="line"/>
      <point x="283" y="735" type="line"/>
    </contour>
  </outline>
</glyph>
<glyph name="uni201F" format="1">
  <advance width="305"/>
  <unicode hex="201F"/>
  <outline>
    <contour>
      <point x="287" y="735" type="line"/>
      <point x="263" y="624" type="line"/>
      <point x="228" y="624" type="line"/>
      <point x="236" y="494" type="line"/>
      <point x="186" y="494" type="line"/>
      <point x="158" y="624" type="line"/>
      <point x="182" y="735" type="line"/>
    </contour>
    <contour>
      <point x="435" y="735" type="line"/>
      <point x="411" y="624" type="line"/>
      <point x="376" y="624" type="line"/>
      <point x="384" y="494" type="line"/>
      <point x="334" y="494" type="line"/>
      <point x="306" y="624" type="line"/>
      <point x="330" y="735" type="line"/>
    </contour>
  </outline>
</glyph>
<glyph name="bullet" format="1">
  <advance width="324"/>
  <unicode hex="2022"/>
  <outline>
    <contour>
      <point x="124" y="399" type="curve" smooth="yes"/>
      <point x="131" y="432"/>
      <point x="152" y="462"/>
      <point x="179" y="485" type="curve" smooth="yes"/>
      <point x="206" y="508"/>
      <point x="238" y="520"/>
      <point x="273" y="520" type="curve" smooth="yes"/>
      <point x="306" y="520"/>
      <point x="333" y="508"/>
      <point x="352" y="485" type="curve" smooth="yes"/>
      <point x="388" y="438"/>
      <point x="368" y="380"/>
      <point x="349" y="351" type="curve" smooth="yes"/>
      <point x="330" y="322"/>
      <point x="303" y="298"/>
      <point x="271" y="286" type="curve" smooth="yes"/>
      <point x="254" y="279"/>
      <point x="238" y="276"/>
      <point x="221" y="276" type="curve" smooth="yes"/>
      <point x="186" y="276"/>
      <point x="159" y="289"/>
      <point x="142" y="312" type="curve"/>
      <point x="123" y="335"/>
      <point x="117" y="364"/>
    </contour>
  </outline>
</glyph>
<glyph name="ellipsis" format="1">
  <advance width="471"/>
  <unicode hex="2026"/>
  <outline>
    <contour>
      <point x="49" y="111" type="line"/>
      <point x="154" y="111" type="line"/>
      <point x="131" y="0" type="line"/>
      <point x="26" y="0" type="line"/>
    </contour>
    <contour>
      <point x="206" y="111" type="line"/>
      <point x="311" y="111" type="line"/>
      <point x="288" y="0" type="line"/>
      <point x="183" y="0" type="line"/>
    </contour>
    <contour>
      <point x="363" y="111" type="line"/>
      <point x="468" y="111" type="line"/>
      <point x="445" y="0" type="line"/>
      <point x="340" y="0" type="line"/>
    </contour>
  </outline>
</glyph>
<glyph name="Euro" format="1">
  <advance width="397"/>
  <unicode hex="20AC"/>
  <outline>
    <contour>
      <point x="125" y="468" type="line"/>
      <point x="177" y="468" type="line"/>
      <point x="202" y="584" type="line" smooth="yes"/>
      <point x="209" y="613"/>
      <point x="220" y="639"/>
      <point x="236" y="663" type="curve"/>
      <point x="251" y="683"/>
      <point x="267" y="703"/>
      <point x="290" y="718" type="curve" smooth="yes"/>
      <point x="313" y="733"/>
      <point x="343" y="743"/>
      <point x="379" y="743" type="curve" smooth="yes"/>
      <point x="415" y="743"/>
      <point x="440" y="733"/>
      <point x="457" y="718" type="curve" smooth="yes"/>
      <point x="474" y="703"/>
      <point x="484" y="683"/>
      <point x="488" y="663" type="curve"/>
      <point x="495" y="641"/>
      <point x="495" y="615"/>
      <point x="490" y="584" type="curve"/>
      <point x="481" y="543" type="line"/>
      <point x="380" y="543" type="line"/>
      <point x="389" y="584" type="line" smooth="yes"/>
      <point x="393" y="603"/>
      <point x="391" y="619"/>
      <point x="382" y="630" type="curve" smooth="yes"/>
      <point x="378" y="635"/>
      <point x="370" y="638"/>
      <point x="359" y="638" type="curve" smooth="yes"/>
      <point x="340" y="638"/>
      <point x="328" y="624"/>
      <point x="320" y="611" type="curve"/>
      <point x="317" y="604"/>
      <point x="313" y="595"/>
      <point x="310" y="584" type="curve"/>
      <point x="285" y="468" type="line"/>
      <point x="399" y="468" type="line"/>
      <point x="385" y="401" type="line"/>
      <point x="271" y="401" type="line"/>
      <point x="256" y="334" type="line"/>
      <point x="370" y="334" type="line"/>
      <point x="356" y="267" type="line"/>
      <point x="242" y="267" type="line"/>
      <point x="218" y="151" type="line" smooth="yes"/>
      <point x="215" y="132"/>
      <point x="217" y="116"/>
      <point x="225" y="105" type="curve" smooth="yes"/>
      <point x="229" y="100"/>
      <point x="235" y="97"/>
      <point x="244" y="97" type="curve" smooth="yes"/>
      <point x="267" y="97"/>
      <point x="279" y="109"/>
      <point x="287" y="124" type="curve" smooth="yes"/>
      <point x="290" y="130"/>
      <point x="294" y="139"/>
      <point x="297" y="151" type="curve"/>
      <point x="305" y="192" type="line"/>
      <point x="406" y="192" type="line"/>
      <point x="398" y="151" type="line"/>
      <point x="390" y="121"/>
      <point x="378" y="94"/>
      <point x="363" y="71" type="curve"/>
      <point x="348" y="51"/>
      <point x="331" y="32"/>
      <point x="308" y="17" type="curve" smooth="yes"/>
      <point x="284" y="0"/>
      <point x="255" y="-8"/>
      <point x="220" y="-8" type="curve" smooth="yes"/>
      <point x="185" y="-8"/>
      <point x="159" y="0"/>
      <point x="141" y="17" type="curve" smooth="yes"/>
      <point x="124" y="32"/>
      <point x="115" y="51"/>
      <point x="111" y="71" type="curve"/>
      <point x="104" y="94"/>
      <point x="104" y="120"/>
      <point x="110" y="151" type="curve" smooth="yes"/>
      <point x="134" y="267" type="line"/>
      <point x="82" y="267" type="line"/>
      <point x="96" y="334" type="line"/>
      <point x="148" y="334" type="line"/>
      <point x="163" y="401" type="line"/>
      <point x="111" y="401" type="line"/>
    </contour>
  </outline>
</glyph>
<glyph name="minus" format="1">
  <advance width="379"/>
  <unicode hex="2212"/>
  <outline>
    <contour>
      <point x="121" y="401" type="line"/>
      <point x="428" y="401" type="line"/>
      <point x="410" y="317" type="line"/>
      <point x="103" y="317" type="line"/>
    </contour>
  </outline>
</glyph>
<glyph name="fl" format="1">
  <advance width="377"/>
  <unicode hex="FB02"/>
  <outline>
    <contour>
      <point x="236" y="0" type="line"/>
      <point x="373" y="649" type="line"/>
      <point x="365" y="650"/>
      <point x="356" y="651"/>
      <point x="341" y="651" type="curve" smooth="yes"/>
      <point x="318" y="651"/>
      <point x="305" y="635"/>
      <point x="296" y="616" type="curve"/>
      <point x="291" y="607"/>
      <point x="288" y="597"/>
      <point x="286" y="586" type="curve" smooth="yes"/>
      <point x="285" y="581"/>
      <point x="284" y="576"/>
      <point x="283" y="572" type="curve" smooth="yes"/>
      <point x="282" y="568"/>
      <point x="282" y="564"/>
      <point x="281" y="561" type="curve"/>
      <point x="278" y="547" type="line"/>
      <point x="329" y="547" type="line"/>
      <point x="309" y="456" type="line"/>
      <point x="258" y="456" type="line"/>
      <point x="162" y="0" type="line"/>
      <point x="61" y="0" type="line"/>
      <point x="157" y="456" type="line"/>
      <point x="106" y="456" type="line"/>
      <point x="126" y="547" type="line"/>
      <point x="177" y="547" type="line"/>
      <point x="180" y="562" type="line" smooth="yes"/>
      <point x="187" y="590"/>
      <point x="195" y="635"/>
      <point x="219" y="674" type="curve" smooth="yes"/>
      <point x="242" y="713"/>
      <point x="278" y="742"/>
      <point x="342" y="742" type="curve" smooth="yes"/>
      <point x="361" y="742"/>
      <point x="379" y="741"/>
      <point x="391" y="738" type="curve"/>
      <point x="394" y="737"/>
      <point x="398" y="737"/>
      <point x="402" y="737" type="curve"/>
      <point x="406" y="736"/>
      <point x="410" y="736"/>
      <point x="413" y="735" type="curve"/>
      <point x="493" y="735" type="line"/>
      <point x="337" y="0" type="line"/>
    </contour>
  </outline>
</glyph>
